<svg id="svg" version="1.1" width="400" height="400" xmlns="http://www.w3.org/2000/svg" xmlns:xlink="http://www.w3.org/1999/xlink" style="display: block;"><g id="svgg"><path id="path0" d="M0.000 200.000 L 0.000 400.000 200.000 400.000 L 400.000 400.000 400.000 200.000 L 400.000 0.000 200.000 0.000 L 0.000 0.000 0.000 200.000 M209.000 46.400 L 209.000 75.800 202.000 75.800 L 195.000 75.800 194.897 46.800 C 194.840 30.850,194.881 17.571,194.988 17.291 C 195.137 16.899,196.783 16.806,202.091 16.891 L 209.000 17.000 209.000 46.400 M152.096 55.499 C 163.488 66.884,172.906 76.504,173.025 76.878 C 173.220 77.494,164.027 87.200,163.248 87.200 C 163.106 87.200,153.455 77.659,141.802 65.999 L 120.615 44.797 125.601 39.799 C 128.344 37.049,130.767 34.800,130.985 34.800 C 131.203 34.800,140.703 44.115,152.096 55.499 M277.646 38.924 C 279.931 41.193,282.151 43.451,282.579 43.943 L 283.359 44.838 262.181 66.019 C 250.533 77.669,240.892 87.200,240.756 87.200 C 240.506 87.200,232.867 79.717,231.421 78.057 L 230.641 77.162 251.819 55.981 C 263.467 44.331,273.108 34.800,273.244 34.800 C 273.380 34.800,275.361 36.656,277.646 38.924 M162.174 117.990 L 163.200 118.380 163.200 135.190 L 163.200 152.000 169.767 152.000 C 173.379 152.000,176.619 151.891,176.967 151.757 C 177.530 151.541,177.600 149.672,177.600 134.800 C 177.600 119.928,177.670 118.059,178.233 117.843 C 179.059 117.526,224.941 117.526,225.767 117.843 C 226.330 118.059,226.400 119.931,226.400 134.835 L 226.400 151.585 227.300 151.807 C 227.795 151.929,230.990 151.977,234.400 151.914 L 240.600 151.800 240.704 135.021 C 240.784 122.208,240.926 118.167,241.304 117.927 C 242.170 117.377,289.366 117.526,289.920 118.080 C 290.428 118.588,290.650 204.025,290.149 205.896 L 289.909 206.792 271.070 206.896 L 252.231 207.000 251.753 210.400 C 251.491 212.270,250.984 216.680,250.626 220.200 C 250.269 223.720,249.804 228.040,249.592 229.800 C 249.380 231.560,248.935 235.520,248.604 238.600 C 248.272 241.680,247.829 245.640,247.620 247.400 C 247.410 249.160,246.945 253.390,246.587 256.800 C 246.230 260.210,245.814 263.900,245.665 265.000 L 245.393 267.000 202.140 267.102 C 162.779 267.194,158.865 267.146,158.641 266.563 C 158.422 265.992,158.052 262.909,156.796 251.200 C 156.596 249.330,156.146 245.280,155.796 242.200 C 155.447 239.120,154.997 235.070,154.796 233.200 C 154.596 231.330,154.146 227.280,153.797 224.200 C 153.448 221.120,152.988 216.980,152.775 215.000 C 152.562 213.020,152.256 210.410,152.094 209.200 L 151.800 207.000 132.946 206.896 L 114.091 206.792 113.851 205.896 C 113.350 204.025,113.572 118.588,114.080 118.080 C 114.691 117.469,160.578 117.383,162.174 117.990 M128.587 133.293 C 128.480 133.572,128.440 146.850,128.497 162.800 L 128.600 191.800 146.795 192.000 L 164.990 192.200 165.290 194.200 C 165.569 196.061,166.343 202.778,167.204 210.800 C 167.404 212.670,167.854 216.720,168.204 219.800 C 168.553 222.880,169.003 226.930,169.204 228.800 C 169.405 230.670,169.845 234.630,170.182 237.600 C 170.519 240.570,170.983 244.880,171.213 247.178 C 171.443 249.475,171.826 251.590,172.064 251.878 C 172.414 252.299,178.219 252.400,202.035 252.400 C 235.760 252.400,232.156 252.874,232.593 248.380 C 232.731 246.961,233.096 243.640,233.403 241.000 C 233.711 238.360,234.151 234.490,234.382 232.400 C 235.107 225.839,235.993 217.932,236.398 214.400 C 236.613 212.530,237.061 208.480,237.394 205.400 C 238.097 198.899,238.817 193.216,239.028 192.500 C 239.143 192.110,243.036 192.000,256.755 192.000 C 266.424 192.000,274.619 191.891,274.967 191.757 C 275.862 191.414,275.943 133.983,275.050 133.241 C 274.664 132.921,271.711 132.817,265.150 132.893 L 255.800 133.000 255.696 149.455 C 255.612 162.696,255.486 165.997,255.050 166.358 C 254.662 166.681,248.544 166.778,233.355 166.704 L 212.200 166.600 212.000 149.800 L 211.800 133.000 202.000 133.000 L 192.200 133.000 192.000 149.800 L 191.800 166.600 170.600 166.696 C 157.680 166.754,149.166 166.643,148.800 166.411 C 148.288 166.086,148.171 163.609,148.000 149.515 L 147.800 133.000 138.290 132.893 C 130.899 132.809,128.737 132.898,128.587 133.293 M337.634 303.309 C 338.723 305.528,341.931 305.286,342.832 302.916 C 343.296 301.694,345.600 301.576,345.600 302.774 C 345.600 308.838,336.652 310.041,334.676 304.243 C 333.980 302.199,334.079 301.997,335.767 302.009 C 336.755 302.016,337.126 302.275,337.634 303.309 M53.088 312.500 C 53.762 313.875,55.159 316.755,56.192 318.900 C 58.357 323.394,58.432 323.439,59.504 320.900 C 59.945 319.855,61.154 316.975,62.191 314.500 L 64.075 310.000 66.838 310.000 C 70.308 310.000,70.507 309.106,64.023 322.600 C 63.389 323.920,62.475 325.900,61.993 327.000 C 58.208 335.626,56.678 337.274,52.600 337.111 L 49.800 337.000 49.800 335.000 L 49.800 333.000 51.682 332.879 C 54.412 332.703,56.688 329.692,55.234 328.180 C 55.033 327.971,54.024 326.180,52.992 324.200 C 51.959 322.220,49.964 318.421,48.557 315.757 C 45.368 309.717,45.349 310.000,48.932 310.000 L 51.863 310.000 53.088 312.500 M92.200 323.600 L 92.200 337.000 89.600 337.000 L 87.000 337.000 86.800 325.600 L 86.600 314.200 83.808 314.080 C 82.273 314.013,80.608 314.062,80.108 314.187 L 79.200 314.415 79.198 323.108 C 79.195 335.611,78.491 337.200,72.954 337.200 C 69.903 337.200,69.600 337.001,69.600 335.000 C 69.600 333.326,70.021 332.800,71.363 332.800 C 73.593 332.800,73.600 332.764,73.600 321.187 C 73.600 315.327,73.723 310.410,73.874 310.259 C 74.025 310.109,78.210 310.034,83.174 310.093 L 92.200 310.200 92.200 323.600 M118.000 312.000 L 118.000 314.000 111.233 314.000 C 102.804 314.000,103.200 313.850,103.200 317.035 C 103.200 320.135,102.781 319.970,111.000 320.103 L 117.000 320.200 117.000 322.000 L 117.000 323.800 111.000 323.897 C 102.481 324.035,103.200 323.601,103.200 328.599 L 103.200 332.782 110.700 332.891 L 118.200 333.000 118.200 335.000 L 118.200 337.000 108.228 337.107 C 100.517 337.190,98.183 337.099,97.934 336.707 C 97.549 336.100,97.484 310.650,97.867 310.267 C 98.013 310.120,102.603 310.000,108.067 310.000 L 118.000 310.000 118.000 312.000 M138.256 311.800 C 138.575 312.680,139.178 314.390,139.596 315.600 C 140.013 316.810,141.289 320.410,142.430 323.600 C 147.657 338.214,147.569 337.288,143.720 337.118 L 141.029 337.000 140.215 334.600 C 138.991 330.995,139.405 331.200,133.368 331.200 C 127.294 331.200,128.142 330.730,126.509 335.000 L 125.744 337.000 123.414 337.122 C 122.132 337.189,120.916 337.076,120.711 336.871 C 120.348 336.508,122.794 328.736,125.392 322.000 C 125.689 321.230,126.064 320.240,126.224 319.800 C 126.385 319.360,126.946 317.830,127.471 316.400 C 127.996 314.970,128.619 313.170,128.854 312.400 C 129.576 310.043,129.754 309.961,133.899 310.086 L 137.676 310.200 138.256 311.800 M170.200 312.000 L 170.200 313.800 163.000 314.023 C 154.513 314.287,155.600 313.856,155.600 316.957 C 155.600 320.094,155.409 320.000,161.809 320.000 C 164.673 320.000,166.857 320.168,167.000 320.400 C 167.136 320.620,167.567 320.800,167.959 320.800 C 169.814 320.800,172.800 325.610,172.800 328.600 C 172.800 335.174,169.210 337.260,158.156 337.109 L 150.200 337.000 150.095 323.493 L 149.989 309.986 160.095 310.093 L 170.200 310.200 170.200 312.000 M193.105 310.356 C 193.487 310.551,194.495 311.046,195.343 311.456 C 201.231 314.295,203.577 323.043,200.394 330.294 C 199.238 332.928,195.905 336.000,194.203 336.000 C 193.925 336.000,193.474 336.270,193.200 336.600 C 192.505 337.437,186.149 337.439,184.546 336.602 C 183.916 336.274,183.104 336.004,182.743 336.002 C 181.802 335.999,178.283 332.718,177.526 331.138 C 177.173 330.402,176.640 329.277,176.342 328.638 C 174.854 325.447,175.999 317.733,178.453 314.414 C 181.037 310.919,189.583 308.552,193.105 310.356 M222.331 310.812 C 227.161 313.146,228.258 320.312,224.416 324.432 C 223.612 325.294,222.671 326.000,222.326 326.000 C 221.980 326.000,221.474 326.270,221.200 326.600 C 220.809 327.072,219.688 327.200,215.963 327.200 L 211.225 327.200 211.112 332.100 L 211.000 337.000 208.637 337.122 C 207.018 337.205,206.170 337.080,205.943 336.722 C 205.552 336.104,205.478 310.655,205.867 310.267 C 206.605 309.529,220.637 309.994,222.331 310.812 M249.200 312.000 L 249.200 314.000 243.300 314.006 C 235.637 314.014,236.432 312.673,236.306 325.820 L 236.200 337.000 234.068 337.122 C 230.628 337.319,230.800 338.040,230.800 323.418 C 230.800 316.331,230.920 310.413,231.067 310.267 C 231.213 310.120,235.353 310.000,240.267 310.000 L 249.200 310.000 249.200 312.000 M267.400 310.400 C 267.536 310.620,268.023 310.800,268.482 310.800 C 268.942 310.800,270.104 311.444,271.065 312.232 C 273.850 314.514,274.808 317.200,272.836 317.200 C 272.402 317.200,271.936 317.380,271.800 317.600 C 271.183 318.598,269.012 318.009,268.096 316.595 C 267.599 315.828,267.001 315.200,266.768 315.200 C 266.534 315.200,266.073 314.930,265.743 314.600 C 265.389 314.246,264.411 314.000,263.357 314.000 C 258.179 314.000,255.605 319.350,256.938 327.341 C 258.006 333.749,266.411 334.828,268.396 328.812 C 269.071 326.767,269.380 326.564,270.604 327.366 C 271.136 327.714,271.856 328.000,272.203 328.000 C 272.550 328.000,273.205 328.346,273.660 328.770 L 274.486 329.540 273.546 331.421 C 272.544 333.430,269.881 336.000,268.804 336.000 C 268.446 336.000,267.804 336.264,267.376 336.587 C 266.296 337.404,260.447 337.423,259.376 336.613 C 258.949 336.290,258.362 336.020,258.072 336.013 C 252.556 335.880,248.791 323.705,252.111 316.735 C 253.324 314.189,256.840 310.800,258.270 310.800 C 258.755 310.800,259.264 310.620,259.400 310.400 C 259.536 310.179,261.330 310.000,263.400 310.000 C 265.470 310.000,267.264 310.179,267.400 310.400 M284.400 315.213 C 284.400 322.412,285.728 322.781,288.676 316.400 C 290.369 312.736,291.793 310.800,292.797 310.800 C 293.213 310.800,293.664 310.620,293.800 310.400 C 293.936 310.180,295.117 310.000,296.424 310.000 L 298.800 310.000 298.800 312.000 L 298.800 314.000 297.461 314.000 C 295.416 314.000,294.374 315.180,292.563 319.543 C 292.165 320.502,291.451 321.541,290.976 321.853 C 290.121 322.413,290.130 322.437,291.975 324.309 C 294.127 326.493,299.174 336.186,298.506 336.854 C 298.294 337.066,296.884 337.185,295.372 337.120 L 292.624 337.000 290.150 332.060 C 285.606 322.989,284.688 322.853,284.400 331.205 L 284.200 337.000 282.638 337.128 C 281.779 337.198,280.654 337.150,280.138 337.020 L 279.200 336.785 279.200 323.659 C 279.200 308.875,278.964 310.000,282.067 310.000 L 284.400 310.000 284.400 315.213 M307.200 318.879 L 307.200 327.758 308.346 326.179 C 308.976 325.310,310.085 323.520,310.811 322.200 C 312.062 319.925,313.146 317.969,314.911 314.800 C 315.340 314.030,316.138 312.635,316.684 311.700 L 317.676 310.000 320.443 310.000 L 323.211 310.000 323.105 323.500 L 323.000 337.000 320.600 337.000 L 318.200 337.000 318.092 328.700 C 317.964 318.870,318.065 319.028,315.207 324.179 C 314.482 325.488,313.013 328.079,311.944 329.937 C 310.875 331.795,310.000 333.392,310.000 333.485 C 310.000 333.579,309.446 334.461,308.769 335.445 L 307.537 337.235 304.869 337.118 L 302.200 337.000 302.095 323.500 L 301.989 310.000 304.595 310.000 L 307.200 310.000 307.200 318.879 M334.312 319.000 L 334.425 327.800 335.547 326.000 C 336.987 323.691,338.531 320.963,340.529 317.200 C 341.404 315.550,342.727 313.247,343.467 312.082 L 344.813 309.964 347.507 310.082 L 350.200 310.200 350.200 323.600 L 350.200 337.000 347.964 337.118 C 344.790 337.286,344.834 337.409,344.709 327.969 L 344.600 319.800 343.342 322.200 C 342.650 323.520,340.985 326.460,339.642 328.733 C 338.299 331.006,337.200 332.938,337.200 333.027 C 337.200 333.115,336.645 334.091,335.966 335.194 L 334.731 337.200 332.246 337.200 C 328.599 337.200,328.800 338.005,328.800 323.387 C 328.800 308.895,328.568 309.928,331.784 310.083 L 334.200 310.200 334.312 319.000 M186.114 314.446 C 185.868 314.692,185.247 315.097,184.734 315.346 C 180.463 317.422,180.792 329.017,185.200 331.800 C 192.130 336.175,198.846 326.268,194.732 317.739 C 193.360 314.896,187.792 312.768,186.114 314.446 M211.700 314.245 C 211.346 314.402,211.200 315.685,211.200 318.633 L 211.200 322.800 214.769 322.800 C 220.450 322.800,223.082 318.736,219.576 315.377 C 218.368 314.220,213.376 313.502,211.700 314.245 M132.659 316.866 C 131.497 320.051,129.600 325.948,129.600 326.376 C 129.600 326.645,130.992 326.800,133.400 326.800 C 135.638 326.800,137.200 326.637,137.200 326.405 C 137.200 325.801,133.904 315.846,133.578 315.466 C 133.421 315.282,133.007 315.912,132.659 316.866 M156.100 324.265 C 155.745 324.408,155.600 325.674,155.600 328.633 L 155.600 332.800 160.064 332.800 L 164.529 332.800 165.664 331.528 C 167.539 329.428,167.320 326.782,165.140 325.203 C 163.526 324.033,158.075 323.468,156.100 324.265 M71.088 356.500 C 71.762 357.875,73.159 360.755,74.192 362.900 C 76.357 367.394,76.432 367.439,77.504 364.900 C 77.945 363.855,79.154 360.975,80.191 358.500 L 82.075 354.000 84.838 354.000 C 88.308 354.000,88.507 353.106,82.023 366.600 C 81.389 367.920,80.475 369.900,79.993 371.000 C 76.208 379.626,74.678 381.274,70.600 381.111 L 67.800 381.000 67.800 379.000 L 67.800 377.000 69.682 376.879 C 72.412 376.703,74.688 373.692,73.234 372.180 C 73.033 371.971,72.024 370.180,70.992 368.200 C 69.959 366.220,67.964 362.421,66.557 359.757 C 63.368 353.717,63.349 354.000,66.932 354.000 L 69.863 354.000 71.088 356.500 M95.200 359.412 L 95.200 364.823 100.500 364.712 L 105.800 364.600 105.912 359.300 L 106.023 354.000 108.617 354.000 L 111.211 354.000 111.105 367.500 L 111.000 381.000 108.600 381.000 L 106.200 381.000 106.000 375.200 L 105.800 369.400 100.511 369.288 L 95.222 369.177 95.111 375.088 L 95.000 381.000 92.637 381.122 C 89.458 381.286,89.613 381.991,89.606 367.367 C 89.599 352.836,89.333 354.000,92.667 354.000 L 95.200 354.000 95.200 359.412 M122.312 363.000 L 122.425 371.800 123.547 370.000 C 124.987 367.691,126.531 364.963,128.529 361.200 C 129.404 359.550,130.727 357.247,131.467 356.082 L 132.813 353.964 135.507 354.082 L 138.200 354.200 138.200 367.600 L 138.200 381.000 135.964 381.118 C 132.790 381.286,132.834 381.409,132.709 371.969 L 132.600 363.800 131.342 366.200 C 130.650 367.520,128.985 370.460,127.642 372.733 C 126.299 375.006,125.200 376.938,125.200 377.027 C 125.200 377.115,124.645 378.091,123.966 379.194 L 122.731 381.200 120.246 381.200 C 116.599 381.200,116.800 382.005,116.800 367.387 C 116.800 352.895,116.568 353.928,119.784 354.083 L 122.200 354.200 122.312 363.000 M161.504 354.799 C 165.582 356.770,166.699 362.101,163.669 365.131 L 162.138 366.662 163.628 367.519 C 168.100 370.093,167.632 376.972,162.787 379.900 L 160.635 381.200 152.360 381.200 C 145.184 381.200,144.053 381.116,143.843 380.567 C 143.511 379.702,143.533 354.600,143.867 354.267 C 144.601 353.533,159.834 353.993,161.504 354.799 M191.000 356.000 L 191.000 357.800 183.800 358.000 L 176.600 358.200 176.600 361.000 L 176.600 363.800 183.300 363.910 L 190.000 364.019 190.000 366.000 L 190.000 367.981 183.300 368.090 L 176.600 368.200 176.486 372.500 L 176.373 376.800 183.354 376.800 C 191.720 376.800,191.600 376.768,191.600 379.035 C 191.600 381.307,191.903 381.251,180.400 381.113 L 171.000 381.000 170.895 367.493 L 170.789 353.986 180.895 354.093 L 191.000 354.200 191.000 356.000 M212.331 354.812 C 217.161 357.146,218.258 364.312,214.416 368.432 C 213.612 369.294,212.671 370.000,212.326 370.000 C 211.980 370.000,211.474 370.270,211.200 370.600 C 210.809 371.072,209.688 371.200,205.963 371.200 L 201.225 371.200 201.112 376.100 L 201.000 381.000 198.637 381.122 C 197.018 381.205,196.170 381.080,195.943 380.722 C 195.552 380.104,195.478 354.655,195.867 354.267 C 196.605 353.529,210.637 353.994,212.331 354.812 M236.600 354.400 C 236.736 354.620,237.242 354.808,237.724 354.817 C 240.528 354.872,244.569 361.200,241.800 361.200 C 241.276 361.200,240.736 361.380,240.600 361.600 C 240.062 362.471,238.062 362.029,237.389 360.890 C 235.043 356.918,228.803 357.341,226.589 361.622 C 225.152 364.401,225.511 372.028,227.189 374.385 C 229.925 378.227,235.283 377.511,237.335 373.030 L 238.359 370.793 239.879 371.445 C 242.288 372.478,242.524 372.618,242.926 373.255 C 243.724 374.519,240.969 378.441,238.485 379.577 C 237.888 379.851,236.890 380.327,236.268 380.637 C 234.721 381.406,229.261 381.372,228.224 380.587 C 227.796 380.264,227.141 380.000,226.767 380.000 C 225.808 380.000,222.293 376.739,221.526 375.138 C 221.173 374.402,220.640 373.277,220.342 372.638 C 218.202 368.052,220.726 358.978,224.932 356.137 C 227.779 354.215,235.752 353.028,236.600 354.400 M253.200 362.879 L 253.200 371.758 254.346 370.179 C 254.976 369.310,256.085 367.520,256.811 366.200 C 258.062 363.925,259.146 361.969,260.911 358.800 C 261.340 358.030,262.138 356.635,262.684 355.700 L 263.676 354.000 266.443 354.000 L 269.211 354.000 269.105 367.500 L 269.000 381.000 266.600 381.000 L 264.200 381.000 264.092 372.700 C 263.964 362.870,264.065 363.028,261.207 368.179 C 260.482 369.488,259.013 372.079,257.944 373.937 C 256.875 375.795,256.000 377.392,256.000 377.485 C 256.000 377.579,255.446 378.461,254.769 379.445 L 253.537 381.235 250.869 381.118 L 248.200 381.000 248.095 367.500 L 247.989 354.000 250.595 354.000 L 253.200 354.000 253.200 362.879 M295.000 356.000 L 295.000 357.800 292.000 357.901 C 290.350 357.957,288.598 358.095,288.106 358.207 L 287.212 358.412 287.106 369.706 L 287.000 381.000 284.500 381.119 C 281.446 381.265,281.868 382.952,281.616 369.600 L 281.400 358.200 277.600 358.000 L 273.800 357.800 273.672 356.462 C 273.424 353.870,272.938 353.976,284.490 354.093 L 295.000 354.200 295.000 356.000 M318.000 356.000 L 318.000 358.000 311.233 358.000 C 302.804 358.000,303.200 357.850,303.200 361.035 C 303.200 364.135,302.781 363.970,311.000 364.103 L 317.000 364.200 317.000 366.000 L 317.000 367.800 311.000 367.897 C 302.481 368.035,303.200 367.601,303.200 372.599 L 303.200 376.782 310.700 376.891 L 318.200 377.000 318.200 379.000 L 318.200 381.000 308.228 381.107 C 300.517 381.190,298.183 381.099,297.934 380.707 C 297.549 380.100,297.484 354.650,297.867 354.267 C 298.013 354.120,302.603 354.000,308.067 354.000 L 318.000 354.000 318.000 356.000 M343.000 356.000 L 343.000 357.800 340.000 357.901 C 338.350 357.957,336.598 358.095,336.106 358.207 L 335.212 358.412 335.106 369.706 L 335.000 381.000 332.500 381.119 C 329.446 381.265,329.868 382.952,329.616 369.600 L 329.400 358.200 325.600 358.000 L 321.800 357.800 321.672 356.462 C 321.424 353.870,320.938 353.976,332.490 354.093 L 343.000 354.200 343.000 356.000 M149.700 358.265 C 149.359 358.402,149.200 359.474,149.200 361.633 L 149.200 364.800 153.504 364.800 C 159.675 364.800,162.002 362.341,158.831 359.169 C 157.694 358.032,151.738 357.442,149.700 358.265 M201.700 358.245 C 201.346 358.402,201.200 359.685,201.200 362.633 L 201.200 366.800 204.769 366.800 C 210.450 366.800,213.082 362.736,209.576 359.377 C 208.368 358.220,203.376 357.502,201.700 358.245 M149.200 373.000 L 149.200 376.800 153.925 376.800 C 159.526 376.800,160.800 376.086,160.800 372.944 C 160.800 369.966,159.369 369.200,153.803 369.200 L 149.200 369.200 149.200 373.000 " stroke="none" fill="#ffffff" fill-rule="evenodd"></path><path id="path1" d="M252.277 56.429 C 241.100 67.635,232.065 76.982,232.201 77.201 C 232.530 77.735,233.600 77.712,233.600 77.171 C 233.600 76.618,234.618 75.600,235.171 75.600 C 235.407 75.600,235.600 75.407,235.600 75.171 C 235.600 74.618,236.618 73.600,237.171 73.600 C 237.407 73.600,237.600 73.407,237.600 73.171 C 237.600 72.618,238.618 71.600,239.171 71.600 C 239.407 71.600,239.600 71.407,239.600 71.171 C 239.600 70.618,240.618 69.600,241.171 69.600 C 241.407 69.600,241.600 69.407,241.600 69.171 C 241.600 68.618,242.618 67.600,243.171 67.600 C 243.407 67.600,243.600 67.407,243.600 67.171 C 243.600 66.936,243.857 66.486,244.171 66.171 C 244.486 65.857,244.936 65.600,245.171 65.600 C 245.407 65.600,245.600 65.407,245.600 65.171 C 245.600 64.618,246.618 63.600,247.171 63.600 C 247.407 63.600,247.600 63.407,247.600 63.171 C 247.600 62.618,248.618 61.600,249.171 61.600 C 249.407 61.600,249.600 61.407,249.600 61.171 C 249.600 60.618,250.618 59.600,251.171 59.600 C 251.407 59.600,251.600 59.407,251.600 59.171 C 251.600 58.618,252.618 57.600,253.171 57.600 C 253.407 57.600,253.600 57.407,253.600 57.171 C 253.600 56.618,254.618 55.600,255.171 55.600 C 255.407 55.600,255.600 55.407,255.600 55.171 C 255.600 54.618,256.618 53.600,257.171 53.600 C 257.407 53.600,257.600 53.407,257.600 53.171 C 257.600 52.618,258.618 51.600,259.171 51.600 C 259.407 51.600,259.600 51.407,259.600 51.171 C 259.600 50.618,260.618 49.600,261.171 49.600 C 261.407 49.600,261.600 49.407,261.600 49.171 C 261.600 48.618,262.618 47.600,263.171 47.600 C 263.407 47.600,263.600 47.407,263.600 47.171 C 263.600 46.618,264.618 45.600,265.171 45.600 C 265.407 45.600,265.600 45.407,265.600 45.171 C 265.600 44.618,266.618 43.600,267.171 43.600 C 267.407 43.600,267.600 43.407,267.600 43.171 C 267.600 42.618,268.618 41.600,269.171 41.600 C 269.407 41.600,269.600 41.407,269.600 41.171 C 269.600 40.618,270.618 39.600,271.171 39.600 C 271.407 39.600,271.600 39.407,271.600 39.171 C 271.600 38.604,272.623 37.600,273.201 37.600 C 273.751 37.600,273.571 36.311,273.000 36.161 C 272.780 36.103,263.455 45.224,252.277 56.429 M122.303 44.891 C 122.091 45.528,162.676 86.124,163.201 85.799 C 163.735 85.470,163.712 84.400,163.171 84.400 C 162.618 84.400,161.600 83.382,161.600 82.829 C 161.600 82.593,161.407 82.400,161.171 82.400 C 160.618 82.400,159.600 81.382,159.600 80.829 C 159.600 80.593,159.407 80.400,159.171 80.400 C 158.618 80.400,157.600 79.382,157.600 78.829 C 157.600 78.593,157.407 78.400,157.171 78.400 C 156.618 78.400,155.600 77.382,155.600 76.829 C 155.600 76.593,155.407 76.400,155.171 76.400 C 154.618 76.400,153.600 75.382,153.600 74.829 C 153.600 74.593,153.407 74.400,153.171 74.400 C 152.618 74.400,151.600 73.382,151.600 72.829 C 151.600 72.593,151.407 72.400,151.171 72.400 C 150.618 72.400,149.600 71.382,149.600 70.829 C 149.600 70.593,149.407 70.400,149.171 70.400 C 148.618 70.400,147.600 69.382,147.600 68.829 C 147.600 68.593,147.407 68.400,147.171 68.400 C 146.618 68.400,145.600 67.382,145.600 66.829 C 145.600 66.593,145.407 66.400,145.171 66.400 C 144.618 66.400,143.600 65.382,143.600 64.829 C 143.600 64.593,143.407 64.400,143.171 64.400 C 142.618 64.400,141.600 63.382,141.600 62.829 C 141.600 62.593,141.407 62.400,141.171 62.400 C 140.618 62.400,139.600 61.382,139.600 60.829 C 139.600 60.593,139.407 60.400,139.171 60.400 C 138.618 60.400,137.600 59.382,137.600 58.829 C 137.600 58.593,137.407 58.400,137.171 58.400 C 136.618 58.400,135.600 57.382,135.600 56.829 C 135.600 56.593,135.407 56.400,135.171 56.400 C 134.618 56.400,133.600 55.382,133.600 54.829 C 133.600 54.593,133.407 54.400,133.171 54.400 C 132.618 54.400,131.600 53.382,131.600 52.829 C 131.600 52.593,131.407 52.400,131.171 52.400 C 130.618 52.400,129.600 51.382,129.600 50.829 C 129.600 50.593,129.407 50.400,129.171 50.400 C 128.618 50.400,127.600 49.382,127.600 48.829 C 127.600 48.593,127.407 48.400,127.171 48.400 C 126.618 48.400,125.600 47.382,125.600 46.829 C 125.600 46.593,125.407 46.400,125.171 46.400 C 124.618 46.400,123.600 45.382,123.600 44.829 C 123.600 44.235,122.504 44.288,122.303 44.891 M280.400 44.829 C 280.400 45.382,279.382 46.400,278.829 46.400 C 278.593 46.400,278.400 46.593,278.400 46.829 C 278.400 47.382,277.382 48.400,276.829 48.400 C 276.593 48.400,276.400 48.593,276.400 48.829 C 276.400 49.382,275.382 50.400,274.829 50.400 C 274.593 50.400,274.400 50.593,274.400 50.829 C 274.400 51.382,273.382 52.400,272.829 52.400 C 272.593 52.400,272.400 52.593,272.400 52.829 C 272.400 53.382,271.382 54.400,270.829 54.400 C 270.593 54.400,270.400 54.593,270.400 54.829 C 270.400 55.382,269.382 56.400,268.829 56.400 C 268.593 56.400,268.400 56.593,268.400 56.829 C 268.400 57.382,267.382 58.400,266.829 58.400 C 266.593 58.400,266.400 58.593,266.400 58.829 C 266.400 59.382,265.382 60.400,264.829 60.400 C 264.593 60.400,264.400 60.593,264.400 60.829 C 264.400 61.382,263.382 62.400,262.829 62.400 C 262.593 62.400,262.400 62.593,262.400 62.829 C 262.400 63.382,261.382 64.400,260.829 64.400 C 260.593 64.400,260.400 64.593,260.400 64.829 C 260.400 65.382,259.382 66.400,258.829 66.400 C 258.593 66.400,258.400 66.593,258.400 66.829 C 258.400 67.382,257.382 68.400,256.829 68.400 C 256.593 68.400,256.400 68.593,256.400 68.829 C 256.400 69.382,255.382 70.400,254.829 70.400 C 254.593 70.400,254.400 70.593,254.400 70.829 C 254.400 71.382,253.382 72.400,252.829 72.400 C 252.593 72.400,252.400 72.593,252.400 72.829 C 252.400 73.382,251.382 74.400,250.829 74.400 C 250.593 74.400,250.400 74.593,250.400 74.829 C 250.400 75.382,249.382 76.400,248.829 76.400 C 248.593 76.400,248.400 76.593,248.400 76.829 C 248.400 77.382,247.382 78.400,246.829 78.400 C 246.593 78.400,246.400 78.593,246.400 78.829 C 246.400 79.382,245.382 80.400,244.829 80.400 C 244.593 80.400,244.400 80.593,244.400 80.829 C 244.400 81.382,243.382 82.400,242.829 82.400 C 242.593 82.400,242.400 82.593,242.400 82.829 C 242.400 83.382,241.382 84.400,240.829 84.400 C 240.288 84.400,240.265 85.470,240.799 85.799 C 241.320 86.121,282.121 45.320,281.799 44.799 C 281.470 44.265,280.400 44.288,280.400 44.829 M114.400 162.200 L 114.400 206.000 133.376 206.000 C 145.750 206.000,152.440 206.141,152.603 206.405 C 152.741 206.628,153.016 208.743,153.216 211.105 C 153.755 217.496,154.322 222.823,154.632 224.400 C 154.783 225.170,155.056 227.510,155.239 229.600 C 155.848 236.549,156.380 241.389,156.645 242.400 C 156.789 242.950,157.056 245.200,157.238 247.400 C 157.806 254.253,158.373 259.323,158.794 261.320 C 159.017 262.376,159.200 264.041,159.200 265.020 L 159.200 266.800 202.000 266.800 L 244.800 266.800 244.800 265.273 C 244.800 264.434,244.998 262.679,245.239 261.373 C 245.666 259.066,246.070 255.405,246.758 247.600 C 246.943 245.510,247.217 243.170,247.368 242.400 C 247.682 240.803,248.275 235.262,248.761 229.400 C 248.944 227.200,249.213 224.950,249.359 224.400 C 249.621 223.417,250.087 218.954,250.765 210.936 C 250.954 208.700,251.230 206.675,251.378 206.436 C 251.566 206.131,257.373 206.000,270.624 206.000 L 289.600 206.000 289.600 162.200 L 289.600 118.400 265.404 118.400 L 241.209 118.400 241.104 135.500 L 241.000 152.600 233.600 152.600 L 226.200 152.600 226.096 135.500 L 225.991 118.400 202.000 118.400 L 178.009 118.400 177.904 135.500 L 177.800 152.600 170.200 152.600 L 162.600 152.600 162.496 135.500 L 162.391 118.400 138.396 118.400 L 114.400 118.400 114.400 162.200 M148.889 132.100 C 148.938 132.155,149.073 139.760,149.189 149.000 L 149.400 165.800 170.200 165.800 L 191.000 165.800 191.200 149.000 L 191.400 132.200 202.000 132.200 L 212.600 132.200 212.800 149.000 L 213.000 165.800 233.800 165.800 L 254.600 165.800 254.800 149.000 L 255.000 132.200 265.400 132.200 L 275.800 132.200 275.800 162.400 L 275.800 192.600 257.600 192.810 C 247.590 192.926,239.355 193.061,239.300 193.110 C 239.245 193.160,239.200 194.451,239.200 195.980 C 239.200 197.509,239.017 199.624,238.794 200.680 C 238.391 202.589,237.876 207.138,237.239 214.400 C 237.056 216.490,236.783 218.830,236.632 219.600 C 236.360 220.987,235.908 225.064,235.213 232.400 C 235.015 234.490,234.665 237.370,234.435 238.800 C 234.204 240.230,234.012 242.334,234.008 243.476 C 234.004 244.618,233.820 245.664,233.600 245.800 C 233.380 245.936,233.200 247.441,233.200 249.144 C 233.200 251.019,233.011 252.429,232.720 252.720 C 232.007 253.433,171.874 253.413,171.285 252.700 C 171.057 252.425,170.776 250.940,170.660 249.400 C 170.350 245.292,169.684 239.207,169.368 237.600 C 169.217 236.830,168.944 234.490,168.760 232.400 C 168.216 226.194,167.661 221.093,167.368 219.600 C 167.217 218.830,166.941 216.490,166.755 214.400 C 166.330 209.622,166.129 207.774,165.385 201.800 C 165.056 199.160,164.745 196.100,164.694 195.000 L 164.600 193.000 146.346 192.896 L 128.091 192.792 127.851 191.896 C 127.537 190.723,127.538 134.073,127.852 132.900 L 128.093 132.000 138.447 132.000 C 144.141 132.000,148.840 132.045,148.889 132.100 " stroke="none" fill="#8d1713" fill-rule="evenodd"></path><path id="path2" d="M194.988 17.291 C 194.881 17.571,194.840 30.850,194.897 46.800 L 195.000 75.800 202.000 75.800 L 209.000 75.800 209.000 46.400 L 209.000 17.000 202.091 16.891 C 196.783 16.806,195.137 16.899,194.988 17.291 M125.601 39.799 L 120.615 44.797 141.802 65.999 C 153.455 77.659,163.106 87.200,163.248 87.200 C 164.027 87.200,173.220 77.494,173.025 76.878 C 172.763 76.053,131.547 34.800,130.985 34.800 C 130.767 34.800,128.344 37.049,125.601 39.799 M251.819 55.981 L 230.641 77.162 231.421 78.057 C 232.867 79.717,240.506 87.200,240.756 87.200 C 240.892 87.200,250.533 77.669,262.181 66.019 L 283.359 44.838 282.579 43.943 C 281.133 42.283,273.494 34.800,273.244 34.800 C 273.108 34.800,263.467 44.331,251.819 55.981 M273.529 36.933 C 273.600 37.300,273.453 37.600,273.201 37.600 C 272.623 37.600,271.600 38.604,271.600 39.171 C 271.600 39.407,271.407 39.600,271.171 39.600 C 270.618 39.600,269.600 40.618,269.600 41.171 C 269.600 41.407,269.407 41.600,269.171 41.600 C 268.618 41.600,267.600 42.618,267.600 43.171 C 267.600 43.407,267.407 43.600,267.171 43.600 C 266.618 43.600,265.600 44.618,265.600 45.171 C 265.600 45.407,265.407 45.600,265.171 45.600 C 264.618 45.600,263.600 46.618,263.600 47.171 C 263.600 47.407,263.407 47.600,263.171 47.600 C 262.618 47.600,261.600 48.618,261.600 49.171 C 261.600 49.407,261.407 49.600,261.171 49.600 C 260.618 49.600,259.600 50.618,259.600 51.171 C 259.600 51.407,259.407 51.600,259.171 51.600 C 258.618 51.600,257.600 52.618,257.600 53.171 C 257.600 53.407,257.407 53.600,257.171 53.600 C 256.618 53.600,255.600 54.618,255.600 55.171 C 255.600 55.407,255.407 55.600,255.171 55.600 C 254.618 55.600,253.600 56.618,253.600 57.171 C 253.600 57.407,253.407 57.600,253.171 57.600 C 252.618 57.600,251.600 58.618,251.600 59.171 C 251.600 59.407,251.407 59.600,251.171 59.600 C 250.618 59.600,249.600 60.618,249.600 61.171 C 249.600 61.407,249.407 61.600,249.171 61.600 C 248.618 61.600,247.600 62.618,247.600 63.171 C 247.600 63.407,247.407 63.600,247.171 63.600 C 246.618 63.600,245.600 64.618,245.600 65.171 C 245.600 65.407,245.407 65.600,245.171 65.600 C 244.618 65.600,243.600 66.618,243.600 67.171 C 243.600 67.407,243.407 67.600,243.171 67.600 C 242.936 67.600,242.486 67.857,242.171 68.171 C 241.857 68.486,241.600 68.936,241.600 69.171 C 241.600 69.407,241.407 69.600,241.171 69.600 C 240.618 69.600,239.600 70.618,239.600 71.171 C 239.600 71.407,239.407 71.600,239.171 71.600 C 238.618 71.600,237.600 72.618,237.600 73.171 C 237.600 73.407,237.407 73.600,237.171 73.600 C 236.936 73.600,236.486 73.857,236.171 74.171 C 235.857 74.486,235.600 74.936,235.600 75.171 C 235.600 75.407,235.407 75.600,235.171 75.600 C 234.618 75.600,233.600 76.618,233.600 77.171 C 233.600 77.712,232.530 77.735,232.201 77.201 C 231.913 76.736,272.406 36.005,273.000 36.161 C 273.220 36.219,273.458 36.566,273.529 36.933 M123.600 44.829 C 123.600 45.382,124.618 46.400,125.171 46.400 C 125.407 46.400,125.600 46.593,125.600 46.829 C 125.600 47.382,126.618 48.400,127.171 48.400 C 127.407 48.400,127.600 48.593,127.600 48.829 C 127.600 49.382,128.618 50.400,129.171 50.400 C 129.407 50.400,129.600 50.593,129.600 50.829 C 129.600 51.382,130.618 52.400,131.171 52.400 C 131.407 52.400,131.600 52.593,131.600 52.829 C 131.600 53.382,132.618 54.400,133.171 54.400 C 133.407 54.400,133.600 54.593,133.600 54.829 C 133.600 55.382,134.618 56.400,135.171 56.400 C 135.407 56.400,135.600 56.593,135.600 56.829 C 135.600 57.382,136.618 58.400,137.171 58.400 C 137.407 58.400,137.600 58.593,137.600 58.829 C 137.600 59.382,138.618 60.400,139.171 60.400 C 139.407 60.400,139.600 60.593,139.600 60.829 C 139.600 61.382,140.618 62.400,141.171 62.400 C 141.407 62.400,141.600 62.593,141.600 62.829 C 141.600 63.382,142.618 64.400,143.171 64.400 C 143.407 64.400,143.600 64.593,143.600 64.829 C 143.600 65.382,144.618 66.400,145.171 66.400 C 145.407 66.400,145.600 66.593,145.600 66.829 C 145.600 67.382,146.618 68.400,147.171 68.400 C 147.407 68.400,147.600 68.593,147.600 68.829 C 147.600 69.382,148.618 70.400,149.171 70.400 C 149.407 70.400,149.600 70.593,149.600 70.829 C 149.600 71.382,150.618 72.400,151.171 72.400 C 151.407 72.400,151.600 72.593,151.600 72.829 C 151.600 73.382,152.618 74.400,153.171 74.400 C 153.407 74.400,153.600 74.593,153.600 74.829 C 153.600 75.382,154.618 76.400,155.171 76.400 C 155.407 76.400,155.600 76.593,155.600 76.829 C 155.600 77.382,156.618 78.400,157.171 78.400 C 157.407 78.400,157.600 78.593,157.600 78.829 C 157.600 79.382,158.618 80.400,159.171 80.400 C 159.407 80.400,159.600 80.593,159.600 80.829 C 159.600 81.382,160.618 82.400,161.171 82.400 C 161.407 82.400,161.600 82.593,161.600 82.829 C 161.600 83.382,162.618 84.400,163.171 84.400 C 163.712 84.400,163.735 85.470,163.201 85.799 C 162.676 86.124,122.091 45.528,122.303 44.891 C 122.504 44.288,123.600 44.235,123.600 44.829 M281.799 44.799 C 282.121 45.320,241.320 86.121,240.799 85.799 C 240.265 85.470,240.288 84.400,240.829 84.400 C 241.382 84.400,242.400 83.382,242.400 82.829 C 242.400 82.593,242.593 82.400,242.829 82.400 C 243.382 82.400,244.400 81.382,244.400 80.829 C 244.400 80.593,244.593 80.400,244.829 80.400 C 245.382 80.400,246.400 79.382,246.400 78.829 C 246.400 78.593,246.593 78.400,246.829 78.400 C 247.382 78.400,248.400 77.382,248.400 76.829 C 248.400 76.593,248.593 76.400,248.829 76.400 C 249.382 76.400,250.400 75.382,250.400 74.829 C 250.400 74.593,250.593 74.400,250.829 74.400 C 251.382 74.400,252.400 73.382,252.400 72.829 C 252.400 72.593,252.593 72.400,252.829 72.400 C 253.382 72.400,254.400 71.382,254.400 70.829 C 254.400 70.593,254.593 70.400,254.829 70.400 C 255.382 70.400,256.400 69.382,256.400 68.829 C 256.400 68.593,256.593 68.400,256.829 68.400 C 257.382 68.400,258.400 67.382,258.400 66.829 C 258.400 66.593,258.593 66.400,258.829 66.400 C 259.382 66.400,260.400 65.382,260.400 64.829 C 260.400 64.593,260.593 64.400,260.829 64.400 C 261.382 64.400,262.400 63.382,262.400 62.829 C 262.400 62.593,262.593 62.400,262.829 62.400 C 263.382 62.400,264.400 61.382,264.400 60.829 C 264.400 60.593,264.593 60.400,264.829 60.400 C 265.382 60.400,266.400 59.382,266.400 58.829 C 266.400 58.593,266.593 58.400,266.829 58.400 C 267.382 58.400,268.400 57.382,268.400 56.829 C 268.400 56.593,268.593 56.400,268.829 56.400 C 269.382 56.400,270.400 55.382,270.400 54.829 C 270.400 54.593,270.593 54.400,270.829 54.400 C 271.382 54.400,272.400 53.382,272.400 52.829 C 272.400 52.593,272.593 52.400,272.829 52.400 C 273.382 52.400,274.400 51.382,274.400 50.829 C 274.400 50.593,274.593 50.400,274.829 50.400 C 275.382 50.400,276.400 49.382,276.400 48.829 C 276.400 48.593,276.593 48.400,276.829 48.400 C 277.382 48.400,278.400 47.382,278.400 46.829 C 278.400 46.593,278.593 46.400,278.829 46.400 C 279.382 46.400,280.400 45.382,280.400 44.829 C 280.400 44.288,281.470 44.265,281.799 44.799 M114.080 118.080 C 113.572 118.588,113.350 204.025,113.851 205.896 L 114.091 206.792 132.946 206.896 L 151.800 207.000 152.094 209.200 C 152.256 210.410,152.562 213.020,152.775 215.000 C 152.988 216.980,153.448 221.120,153.797 224.200 C 154.146 227.280,154.596 231.330,154.796 233.200 C 154.997 235.070,155.447 239.120,155.796 242.200 C 156.146 245.280,156.596 249.330,156.796 251.200 C 158.052 262.909,158.422 265.992,158.641 266.563 C 158.865 267.146,162.779 267.194,202.140 267.102 L 245.393 267.000 245.665 265.000 C 245.814 263.900,246.230 260.210,246.587 256.800 C 246.945 253.390,247.410 249.160,247.620 247.400 C 247.829 245.640,248.272 241.680,248.604 238.600 C 248.935 235.520,249.380 231.560,249.592 229.800 C 249.804 228.040,250.269 223.720,250.626 220.200 C 250.984 216.680,251.491 212.270,251.753 210.400 L 252.231 207.000 271.070 206.896 L 289.909 206.792 290.149 205.896 C 290.650 204.025,290.428 118.588,289.920 118.080 C 289.366 117.526,242.170 117.377,241.304 117.927 C 240.926 118.167,240.784 122.208,240.704 135.021 L 240.600 151.800 234.400 151.914 C 230.990 151.977,227.795 151.929,227.300 151.807 L 226.400 151.585 226.400 134.835 C 226.400 119.931,226.330 118.059,225.767 117.843 C 224.941 117.526,179.059 117.526,178.233 117.843 C 177.670 118.059,177.600 119.928,177.600 134.800 C 177.600 149.672,177.530 151.541,176.967 151.757 C 176.619 151.891,173.379 152.000,169.767 152.000 L 163.200 152.000 163.200 135.190 L 163.200 118.380 162.174 117.990 C 160.578 117.383,114.691 117.469,114.080 118.080 M162.496 135.500 L 162.600 152.600 170.200 152.600 L 177.800 152.600 177.904 135.500 L 178.009 118.400 202.000 118.400 L 225.991 118.400 226.096 135.500 L 226.200 152.600 233.600 152.600 L 241.000 152.600 241.104 135.500 L 241.209 118.400 265.404 118.400 L 289.600 118.400 289.600 162.200 L 289.600 206.000 270.624 206.000 C 257.373 206.000,251.566 206.131,251.378 206.436 C 251.230 206.675,250.954 208.700,250.765 210.936 C 250.087 218.954,249.621 223.417,249.359 224.400 C 249.213 224.950,248.944 227.200,248.761 229.400 C 248.275 235.262,247.682 240.803,247.368 242.400 C 247.217 243.170,246.943 245.510,246.758 247.600 C 246.070 255.405,245.666 259.066,245.239 261.373 C 244.998 262.679,244.800 264.434,244.800 265.273 L 244.800 266.800 202.000 266.800 L 159.200 266.800 159.200 265.020 C 159.200 264.041,159.017 262.376,158.794 261.320 C 158.373 259.323,157.806 254.253,157.238 247.400 C 157.056 245.200,156.789 242.950,156.645 242.400 C 156.380 241.389,155.848 236.549,155.239 229.600 C 155.056 227.510,154.783 225.170,154.632 224.400 C 154.322 222.823,153.755 217.496,153.216 211.105 C 153.016 208.743,152.741 206.628,152.603 206.405 C 152.440 206.141,145.750 206.000,133.376 206.000 L 114.400 206.000 114.400 162.200 L 114.400 118.400 138.396 118.400 L 162.391 118.400 162.496 135.500 M127.852 132.900 C 127.538 134.073,127.537 190.723,127.851 191.896 L 128.091 192.792 146.346 192.896 L 164.600 193.000 164.694 195.000 C 164.745 196.100,165.056 199.160,165.385 201.800 C 166.129 207.774,166.330 209.622,166.755 214.400 C 166.941 216.490,167.217 218.830,167.368 219.600 C 167.661 221.093,168.216 226.194,168.760 232.400 C 168.944 234.490,169.217 236.830,169.368 237.600 C 169.684 239.207,170.350 245.292,170.660 249.400 C 170.776 250.940,171.057 252.425,171.285 252.700 C 171.874 253.413,232.007 253.433,232.720 252.720 C 233.011 252.429,233.200 251.019,233.200 249.144 C 233.200 247.441,233.380 245.936,233.600 245.800 C 233.820 245.664,234.004 244.618,234.008 243.476 C 234.012 242.334,234.204 240.230,234.435 238.800 C 234.665 237.370,235.015 234.490,235.213 232.400 C 235.908 225.064,236.360 220.987,236.632 219.600 C 236.783 218.830,237.056 216.490,237.239 214.400 C 237.876 207.138,238.391 202.589,238.794 200.680 C 239.017 199.624,239.200 197.509,239.200 195.980 C 239.200 194.451,239.245 193.160,239.300 193.110 C 239.355 193.061,247.590 192.926,257.600 192.810 L 275.800 192.600 275.800 162.400 L 275.800 132.200 265.400 132.200 L 255.000 132.200 254.800 149.000 L 254.600 165.800 233.800 165.800 L 213.000 165.800 212.800 149.000 L 212.600 132.200 202.000 132.200 L 191.400 132.200 191.200 149.000 L 191.000 165.800 170.200 165.800 L 149.400 165.800 149.189 149.000 C 149.073 139.760,148.938 132.155,148.889 132.100 C 148.840 132.045,144.141 132.000,138.447 132.000 L 128.093 132.000 127.852 132.900 M148.000 149.515 C 148.171 163.609,148.288 166.086,148.800 166.411 C 149.166 166.643,157.680 166.754,170.600 166.696 L 191.800 166.600 192.000 149.800 L 192.200 133.000 202.000 133.000 L 211.800 133.000 212.000 149.800 L 212.200 166.600 233.355 166.704 C 248.544 166.778,254.662 166.681,255.050 166.358 C 255.486 165.997,255.612 162.696,255.696 149.455 L 255.800 133.000 265.150 132.893 C 271.711 132.817,274.664 132.921,275.050 133.241 C 275.943 133.983,275.862 191.414,274.967 191.757 C 274.619 191.891,266.424 192.000,256.755 192.000 C 243.036 192.000,239.143 192.110,239.028 192.500 C 238.817 193.216,238.097 198.899,237.394 205.400 C 237.061 208.480,236.613 212.530,236.398 214.400 C 235.993 217.932,235.107 225.839,234.382 232.400 C 234.151 234.490,233.711 238.360,233.403 241.000 C 233.096 243.640,232.731 246.961,232.593 248.380 C 232.156 252.874,235.760 252.400,202.035 252.400 C 178.219 252.400,172.414 252.299,172.064 251.878 C 171.826 251.590,171.443 249.475,171.213 247.178 C 170.983 244.880,170.519 240.570,170.182 237.600 C 169.845 234.630,169.405 230.670,169.204 228.800 C 169.003 226.930,168.553 222.880,168.204 219.800 C 167.854 216.720,167.404 212.670,167.204 210.800 C 166.343 202.778,165.569 196.061,165.290 194.200 L 164.990 192.200 146.795 192.000 L 128.600 191.800 128.497 162.800 C 128.440 146.850,128.480 133.572,128.587 133.293 C 128.737 132.898,130.899 132.809,138.290 132.893 L 147.800 133.000 148.000 149.515 M334.302 302.232 C 333.770 302.763,335.346 306.071,336.579 307.011 C 340.046 309.655,345.600 307.046,345.600 302.774 C 345.600 301.576,343.296 301.694,342.832 302.916 C 341.931 305.286,338.723 305.528,337.634 303.309 C 337.031 302.081,335.083 301.451,334.302 302.232 M46.000 310.457 C 46.000 310.708,47.151 313.093,48.557 315.757 C 49.964 318.421,51.959 322.220,52.992 324.200 C 54.024 326.180,55.033 327.971,55.234 328.180 C 56.688 329.692,54.412 332.703,51.682 332.879 L 49.800 333.000 49.800 335.000 L 49.800 337.000 52.600 337.111 C 56.678 337.274,58.208 335.626,61.993 327.000 C 62.475 325.900,63.389 323.920,64.023 322.600 C 70.507 309.106,70.308 310.000,66.838 310.000 L 64.075 310.000 62.191 314.500 C 57.981 324.551,58.671 324.045,56.192 318.900 C 55.159 316.755,53.762 313.875,53.088 312.500 L 51.863 310.000 48.932 310.000 C 47.001 310.000,46.000 310.156,46.000 310.457 M73.874 310.259 C 73.723 310.410,73.600 315.327,73.600 321.187 C 73.600 332.764,73.593 332.800,71.363 332.800 C 70.021 332.800,69.600 333.326,69.600 335.000 C 69.600 337.001,69.903 337.200,72.954 337.200 C 78.491 337.200,79.195 335.611,79.198 323.108 L 79.200 314.415 80.108 314.187 C 80.608 314.062,82.273 314.013,83.808 314.080 L 86.600 314.200 86.800 325.600 L 87.000 337.000 89.600 337.000 L 92.200 337.000 92.200 323.600 L 92.200 310.200 83.174 310.093 C 78.210 310.034,74.025 310.109,73.874 310.259 M97.867 310.267 C 97.484 310.650,97.549 336.100,97.934 336.707 C 98.183 337.099,100.517 337.190,108.228 337.107 L 118.200 337.000 118.200 335.000 L 118.200 333.000 110.700 332.891 L 103.200 332.782 103.200 328.599 C 103.200 323.601,102.481 324.035,111.000 323.897 L 117.000 323.800 117.000 322.000 L 117.000 320.200 111.000 320.103 C 102.781 319.970,103.200 320.135,103.200 317.035 C 103.200 313.850,102.804 314.000,111.233 314.000 L 118.000 314.000 118.000 312.000 L 118.000 310.000 108.067 310.000 C 102.603 310.000,98.013 310.120,97.867 310.267 M129.702 310.486 C 129.472 310.769,129.090 311.630,128.854 312.400 C 128.619 313.170,127.996 314.970,127.471 316.400 C 126.946 317.830,126.385 319.360,126.224 319.800 C 126.064 320.240,125.689 321.230,125.392 322.000 C 122.794 328.736,120.348 336.508,120.711 336.871 C 120.916 337.076,122.132 337.189,123.414 337.122 L 125.744 337.000 126.509 335.000 C 128.142 330.730,127.294 331.200,133.368 331.200 C 139.405 331.200,138.991 330.995,140.215 334.600 L 141.029 337.000 143.720 337.118 C 147.569 337.288,147.657 338.214,142.430 323.600 C 141.289 320.410,140.013 316.810,139.596 315.600 C 139.178 314.390,138.575 312.680,138.256 311.800 L 137.676 310.200 133.899 310.086 C 131.190 310.005,130.002 310.118,129.702 310.486 M150.095 323.493 L 150.200 337.000 158.156 337.109 C 169.210 337.260,172.800 335.174,172.800 328.600 C 172.800 325.610,169.814 320.800,167.959 320.800 C 167.567 320.800,167.136 320.620,167.000 320.400 C 166.857 320.168,164.673 320.000,161.809 320.000 C 155.409 320.000,155.600 320.094,155.600 316.957 C 155.600 313.856,154.513 314.287,163.000 314.023 L 170.200 313.800 170.200 312.000 L 170.200 310.200 160.095 310.093 L 149.989 309.986 150.095 323.493 M183.800 310.553 C 180.561 311.789,178.239 314.075,176.738 317.507 C 175.712 319.852,175.467 326.761,176.342 328.638 C 176.640 329.277,177.173 330.402,177.526 331.138 C 178.283 332.718,181.802 335.999,182.743 336.002 C 183.104 336.004,183.916 336.274,184.546 336.602 C 186.149 337.439,192.505 337.437,193.200 336.600 C 193.474 336.270,193.925 336.000,194.203 336.000 C 195.905 336.000,199.238 332.928,200.394 330.294 C 203.577 323.043,201.231 314.295,195.343 311.456 C 194.495 311.046,193.487 310.551,193.105 310.356 C 192.129 309.856,185.246 310.002,183.800 310.553 M205.867 310.267 C 205.478 310.655,205.552 336.104,205.943 336.722 C 206.170 337.080,207.018 337.205,208.637 337.122 L 211.000 337.000 211.112 332.100 L 211.225 327.200 215.963 327.200 C 219.688 327.200,220.809 327.072,221.200 326.600 C 221.474 326.270,221.980 326.000,222.326 326.000 C 222.671 326.000,223.612 325.294,224.416 324.432 C 228.258 320.312,227.161 313.146,222.331 310.812 C 220.637 309.994,206.605 309.529,205.867 310.267 M231.067 310.267 C 230.920 310.413,230.800 316.331,230.800 323.418 C 230.800 338.040,230.628 337.319,234.068 337.122 L 236.200 337.000 236.306 325.820 C 236.432 312.673,235.637 314.014,243.300 314.006 L 249.200 314.000 249.200 312.000 L 249.200 310.000 240.267 310.000 C 235.353 310.000,231.213 310.120,231.067 310.267 M259.400 310.400 C 259.264 310.620,258.755 310.800,258.270 310.800 C 256.840 310.800,253.324 314.189,252.111 316.735 C 248.791 323.705,252.556 335.880,258.072 336.013 C 258.362 336.020,258.949 336.290,259.376 336.613 C 260.447 337.423,266.296 337.404,267.376 336.587 C 267.804 336.264,268.446 336.000,268.804 336.000 C 269.881 336.000,272.544 333.430,273.546 331.421 L 274.486 329.540 273.660 328.770 C 273.205 328.346,272.550 328.000,272.203 328.000 C 271.856 328.000,271.136 327.714,270.604 327.366 C 269.380 326.564,269.071 326.767,268.396 328.812 C 266.411 334.828,258.006 333.749,256.938 327.341 C 255.605 319.350,258.179 314.000,263.357 314.000 C 264.411 314.000,265.389 314.246,265.743 314.600 C 266.073 314.930,266.534 315.200,266.768 315.200 C 267.001 315.200,267.599 315.828,268.096 316.595 C 269.012 318.009,271.183 318.598,271.800 317.600 C 271.936 317.380,272.402 317.200,272.836 317.200 C 274.808 317.200,273.850 314.514,271.065 312.232 C 270.104 311.444,268.942 310.800,268.482 310.800 C 268.023 310.800,267.536 310.620,267.400 310.400 C 267.264 310.179,265.470 310.000,263.400 310.000 C 261.330 310.000,259.536 310.179,259.400 310.400 M279.467 310.267 C 279.320 310.413,279.200 316.440,279.200 323.659 L 279.200 336.785 280.138 337.020 C 280.654 337.150,281.779 337.198,282.638 337.128 L 284.200 337.000 284.400 331.205 C 284.688 322.853,285.606 322.989,290.150 332.060 L 292.624 337.000 295.372 337.120 C 296.884 337.185,298.294 337.066,298.506 336.854 C 299.174 336.186,294.127 326.493,291.975 324.309 C 290.130 322.437,290.121 322.413,290.976 321.853 C 291.451 321.541,292.165 320.502,292.563 319.543 C 294.374 315.180,295.416 314.000,297.461 314.000 L 298.800 314.000 298.800 312.000 L 298.800 310.000 296.424 310.000 C 295.117 310.000,293.936 310.180,293.800 310.400 C 293.664 310.620,293.213 310.800,292.797 310.800 C 291.793 310.800,290.369 312.736,288.676 316.400 C 285.728 322.781,284.400 322.412,284.400 315.213 L 284.400 310.000 282.067 310.000 C 280.783 310.000,279.613 310.120,279.467 310.267 M302.095 323.500 L 302.200 337.000 304.869 337.118 L 307.537 337.235 308.769 335.445 C 309.446 334.461,310.000 333.579,310.000 333.485 C 310.000 333.392,310.875 331.795,311.944 329.937 C 313.013 328.079,314.482 325.488,315.207 324.179 C 318.065 319.028,317.964 318.870,318.092 328.700 L 318.200 337.000 320.600 337.000 L 323.000 337.000 323.105 323.500 L 323.211 310.000 320.443 310.000 L 317.676 310.000 316.684 311.700 C 316.138 312.635,315.340 314.030,314.911 314.800 C 313.146 317.969,312.062 319.925,310.811 322.200 C 310.085 323.520,308.976 325.310,308.346 326.179 L 307.200 327.758 307.200 318.879 L 307.200 310.000 304.595 310.000 L 301.989 310.000 302.095 323.500 M329.084 310.250 C 328.559 310.774,328.748 336.188,329.280 336.720 C 329.550 336.990,330.846 337.200,332.246 337.200 L 334.731 337.200 335.966 335.194 C 336.645 334.091,337.200 333.115,337.200 333.027 C 337.200 332.938,338.299 331.006,339.642 328.733 C 340.985 326.460,342.650 323.520,343.342 322.200 L 344.600 319.800 344.709 327.969 C 344.834 337.409,344.790 337.286,347.964 337.118 L 350.200 337.000 350.200 323.600 L 350.200 310.200 347.507 310.082 L 344.813 309.964 343.467 312.082 C 342.727 313.247,341.404 315.550,340.529 317.200 C 338.531 320.963,336.987 323.691,335.547 326.000 L 334.425 327.800 334.312 319.000 L 334.200 310.200 331.784 310.083 C 330.455 310.019,329.240 310.094,329.084 310.250 M192.469 315.318 C 200.526 321.454,193.619 337.115,185.200 331.800 C 180.792 329.017,180.463 317.422,184.734 315.346 C 185.247 315.097,185.868 314.692,186.114 314.446 C 187.121 313.439,190.633 313.920,192.469 315.318 M219.576 315.377 C 223.082 318.736,220.450 322.800,214.769 322.800 L 211.200 322.800 211.200 318.633 C 211.200 313.794,211.024 313.989,215.276 314.114 C 218.072 314.196,218.463 314.310,219.576 315.377 M135.532 320.905 C 136.449 323.712,137.200 326.187,137.200 326.405 C 137.200 326.637,135.638 326.800,133.400 326.800 C 130.992 326.800,129.600 326.645,129.600 326.376 C 129.600 325.948,131.497 320.051,132.659 316.866 C 133.460 314.672,133.526 314.764,135.532 320.905 M165.140 325.203 C 167.320 326.782,167.539 329.428,165.664 331.528 L 164.529 332.800 160.064 332.800 L 155.600 332.800 155.600 328.633 C 155.600 323.795,155.330 324.075,160.040 324.032 C 163.253 324.002,163.589 324.079,165.140 325.203 M64.000 354.457 C 64.000 354.708,65.151 357.093,66.557 359.757 C 67.964 362.421,69.959 366.220,70.992 368.200 C 72.024 370.180,73.033 371.971,73.234 372.180 C 74.688 373.692,72.412 376.703,69.682 376.879 L 67.800 377.000 67.800 379.000 L 67.800 381.000 70.600 381.111 C 74.678 381.274,76.208 379.626,79.993 371.000 C 80.475 369.900,81.389 367.920,82.023 366.600 C 88.507 353.106,88.308 354.000,84.838 354.000 L 82.075 354.000 80.191 358.500 C 75.981 368.551,76.671 368.045,74.192 362.900 C 73.159 360.755,71.762 357.875,71.088 356.500 L 69.863 354.000 66.932 354.000 C 65.001 354.000,64.000 354.156,64.000 354.457 M89.867 354.267 C 89.478 354.655,89.552 380.104,89.943 380.722 C 90.170 381.080,91.018 381.205,92.637 381.122 L 95.000 381.000 95.111 375.088 L 95.222 369.177 100.511 369.288 L 105.800 369.400 106.000 375.200 L 106.200 381.000 108.600 381.000 L 111.000 381.000 111.105 367.500 L 111.211 354.000 108.617 354.000 L 106.023 354.000 105.912 359.300 L 105.800 364.600 100.500 364.712 L 95.200 364.823 95.200 359.412 L 95.200 354.000 92.667 354.000 C 91.273 354.000,90.013 354.120,89.867 354.267 M117.084 354.250 C 116.559 354.774,116.748 380.188,117.280 380.720 C 117.550 380.990,118.846 381.200,120.246 381.200 L 122.731 381.200 123.966 379.194 C 124.645 378.091,125.200 377.115,125.200 377.027 C 125.200 376.938,126.299 375.006,127.642 372.733 C 128.985 370.460,130.650 367.520,131.342 366.200 L 132.600 363.800 132.709 371.969 C 132.834 381.409,132.790 381.286,135.964 381.118 L 138.200 381.000 138.200 367.600 L 138.200 354.200 135.507 354.082 L 132.813 353.964 131.467 356.082 C 130.727 357.247,129.404 359.550,128.529 361.200 C 126.531 364.963,124.987 367.691,123.547 370.000 L 122.425 371.800 122.312 363.000 L 122.200 354.200 119.784 354.083 C 118.455 354.019,117.240 354.094,117.084 354.250 M143.867 354.267 C 143.533 354.600,143.511 379.702,143.843 380.567 C 144.053 381.116,145.184 381.200,152.360 381.200 L 160.635 381.200 162.787 379.900 C 167.632 376.972,168.100 370.093,163.628 367.519 L 162.138 366.662 163.669 365.131 C 166.699 362.101,165.582 356.770,161.504 354.799 C 159.834 353.993,144.601 353.533,143.867 354.267 M170.895 367.493 L 171.000 381.000 180.400 381.113 C 191.903 381.251,191.600 381.307,191.600 379.035 C 191.600 376.768,191.720 376.800,183.354 376.800 L 176.373 376.800 176.486 372.500 L 176.600 368.200 183.300 368.090 L 190.000 367.981 190.000 366.000 L 190.000 364.019 183.300 363.910 L 176.600 363.800 176.600 361.000 L 176.600 358.200 183.800 358.000 L 191.000 357.800 191.000 356.000 L 191.000 354.200 180.895 354.093 L 170.789 353.986 170.895 367.493 M195.867 354.267 C 195.478 354.655,195.552 380.104,195.943 380.722 C 196.170 381.080,197.018 381.205,198.637 381.122 L 201.000 381.000 201.112 376.100 L 201.225 371.200 205.963 371.200 C 209.688 371.200,210.809 371.072,211.200 370.600 C 211.474 370.270,211.980 370.000,212.326 370.000 C 212.671 370.000,213.612 369.294,214.416 368.432 C 218.258 364.312,217.161 357.146,212.331 354.812 C 210.637 353.994,196.605 353.529,195.867 354.267 M227.800 354.553 C 221.597 356.919,217.567 366.691,220.342 372.638 C 220.640 373.277,221.173 374.402,221.526 375.138 C 222.293 376.739,225.808 380.000,226.767 380.000 C 227.141 380.000,227.796 380.264,228.224 380.587 C 229.261 381.372,234.721 381.406,236.268 380.637 C 236.890 380.327,237.888 379.851,238.485 379.577 C 240.969 378.441,243.724 374.519,242.926 373.255 C 242.524 372.618,242.288 372.478,239.879 371.445 L 238.359 370.793 237.335 373.030 C 235.283 377.511,229.925 378.227,227.189 374.385 C 225.511 372.028,225.152 364.401,226.589 361.622 C 228.803 357.341,235.043 356.918,237.389 360.890 C 238.062 362.029,240.062 362.471,240.600 361.600 C 240.736 361.380,241.276 361.200,241.800 361.200 C 244.569 361.200,240.528 354.872,237.724 354.817 C 237.242 354.808,236.736 354.620,236.600 354.400 C 236.265 353.857,229.307 353.979,227.800 354.553 M248.095 367.500 L 248.200 381.000 250.869 381.118 L 253.537 381.235 254.769 379.445 C 255.446 378.461,256.000 377.579,256.000 377.485 C 256.000 377.392,256.875 375.795,257.944 373.937 C 259.013 372.079,260.482 369.488,261.207 368.179 C 264.065 363.028,263.964 362.870,264.092 372.700 L 264.200 381.000 266.600 381.000 L 269.000 381.000 269.105 367.500 L 269.211 354.000 266.443 354.000 L 263.676 354.000 262.684 355.700 C 262.138 356.635,261.340 358.030,260.911 358.800 C 259.146 361.969,258.062 363.925,256.811 366.200 C 256.085 367.520,254.976 369.310,254.346 370.179 L 253.200 371.758 253.200 362.879 L 253.200 354.000 250.595 354.000 L 247.989 354.000 248.095 367.500 M273.762 354.555 C 273.642 354.868,273.601 355.726,273.672 356.462 L 273.800 357.800 277.600 358.000 L 281.400 358.200 281.616 369.600 C 281.868 382.952,281.446 381.265,284.500 381.119 L 287.000 381.000 287.106 369.706 L 287.212 358.412 288.106 358.207 C 288.598 358.095,290.350 357.957,292.000 357.901 L 295.000 357.800 295.000 356.000 L 295.000 354.200 284.490 354.093 C 275.705 354.004,273.944 354.080,273.762 354.555 M297.867 354.267 C 297.484 354.650,297.549 380.100,297.934 380.707 C 298.183 381.099,300.517 381.190,308.228 381.107 L 318.200 381.000 318.200 379.000 L 318.200 377.000 310.700 376.891 L 303.200 376.782 303.200 372.599 C 303.200 367.601,302.481 368.035,311.000 367.897 L 317.000 367.800 317.000 366.000 L 317.000 364.200 311.000 364.103 C 302.781 363.970,303.200 364.135,303.200 361.035 C 303.200 357.850,302.804 358.000,311.233 358.000 L 318.000 358.000 318.000 356.000 L 318.000 354.000 308.067 354.000 C 302.603 354.000,298.013 354.120,297.867 354.267 M321.762 354.555 C 321.642 354.868,321.601 355.726,321.672 356.462 L 321.800 357.800 325.600 358.000 L 329.400 358.200 329.616 369.600 C 329.868 382.952,329.446 381.265,332.500 381.119 L 335.000 381.000 335.106 369.706 L 335.212 358.412 336.106 358.207 C 336.598 358.095,338.350 357.957,340.000 357.901 L 343.000 357.800 343.000 356.000 L 343.000 354.200 332.490 354.093 C 323.705 354.004,321.944 354.080,321.762 354.555 M158.831 359.169 C 162.002 362.341,159.675 364.800,153.504 364.800 L 149.200 364.800 149.200 361.633 C 149.200 357.904,148.978 358.074,153.931 358.032 C 157.540 358.001,157.700 358.038,158.831 359.169 M209.576 359.377 C 213.082 362.736,210.450 366.800,204.769 366.800 L 201.200 366.800 201.200 362.633 C 201.200 357.794,201.024 357.989,205.276 358.114 C 208.072 358.196,208.463 358.310,209.576 359.377 M159.603 370.266 C 161.232 371.717,161.285 374.050,159.725 375.678 C 158.666 376.783,158.580 376.800,153.925 376.800 L 149.200 376.800 149.200 373.000 L 149.200 369.200 153.803 369.200 C 158.224 369.200,158.454 369.242,159.603 370.266 " stroke="none" fill="#eb716e" fill-rule="evenodd"></path></g></svg>