<svg id="svg" version="1.1" width="400" height="400" xmlns="http://www.w3.org/2000/svg" xmlns:xlink="http://www.w3.org/1999/xlink" style="display: block;"><g id="svgg"><path id="path0" d="M0.000 200.000 L 0.000 400.000 200.000 400.000 L 400.000 400.000 400.000 200.000 L 400.000 0.000 200.000 0.000 L 0.000 0.000 0.000 200.000 M209.000 46.400 L 209.000 75.800 202.000 75.800 L 195.000 75.800 194.897 46.800 C 194.840 30.850,194.881 17.571,194.988 17.291 C 195.137 16.899,196.783 16.806,202.091 16.891 L 209.000 17.000 209.000 46.400 M152.099 55.899 C 163.484 67.283,172.800 76.871,172.800 77.205 C 172.800 78.297,163.805 86.919,162.950 86.648 C 162.001 86.346,121.200 45.551,121.200 44.903 C 121.200 44.222,130.077 35.284,130.799 35.238 C 131.128 35.217,140.713 44.514,152.099 55.899 M278.350 39.749 C 281.814 43.224,282.830 44.476,282.648 45.050 C 282.311 46.111,241.511 86.800,240.784 86.800 C 239.700 86.800,231.083 77.800,231.352 76.950 C 231.689 75.889,272.489 35.200,273.216 35.200 C 273.544 35.200,275.854 37.247,278.350 39.749 M162.896 134.900 L 163.000 151.800 170.200 151.800 L 177.400 151.800 177.600 135.000 L 177.800 118.200 202.000 118.200 L 226.200 118.200 226.400 135.000 L 226.600 151.800 233.696 151.909 L 240.791 152.018 240.896 135.109 L 241.000 118.200 265.400 118.200 L 289.800 118.200 289.800 162.400 L 289.800 206.600 270.931 206.704 L 252.062 206.808 251.825 207.904 C 251.601 208.944,250.799 215.916,249.996 223.800 C 249.795 225.780,249.346 229.830,249.000 232.800 C 248.654 235.770,248.203 239.820,248.000 241.800 C 247.796 243.780,247.348 247.920,247.004 251.000 C 246.661 254.080,246.214 258.330,246.011 260.444 C 245.584 264.908,245.248 266.485,244.638 266.894 C 244.397 267.056,225.210 267.188,202.000 267.188 C 178.790 267.188,159.603 267.056,159.363 266.894 C 158.806 266.519,158.457 264.760,157.996 260.000 C 157.794 257.910,157.345 253.770,156.999 250.800 C 156.653 247.830,156.204 243.780,156.000 241.800 C 155.796 239.820,155.346 235.770,155.000 232.800 C 154.654 229.830,154.202 225.780,153.996 223.800 C 153.359 217.672,152.434 209.872,152.159 208.304 L 151.897 206.808 133.048 206.704 L 114.200 206.600 114.097 162.800 C 114.040 138.710,114.080 118.775,114.184 118.500 C 114.334 118.108,119.585 118.000,138.583 118.000 L 162.791 118.000 162.896 134.900 M128.626 133.031 C 128.061 133.596,128.006 136.699,128.097 162.731 L 128.200 191.800 146.184 191.904 C 157.343 191.969,164.318 192.158,164.563 192.403 C 164.949 192.789,165.203 194.461,165.991 201.800 C 166.204 203.780,166.665 207.920,167.015 211.000 C 167.366 214.080,167.815 218.130,168.014 220.000 C 168.212 221.870,168.657 225.920,169.001 229.000 C 169.346 232.080,169.806 236.310,170.024 238.400 C 171.186 249.524,171.473 251.566,171.963 252.156 C 172.720 253.067,231.211 253.151,231.966 252.242 C 232.391 251.729,233.049 247.060,234.000 237.800 C 234.204 235.820,234.652 231.770,234.997 228.800 C 235.342 225.830,235.794 221.870,236.000 220.000 C 236.206 218.130,236.657 214.170,237.002 211.200 C 237.347 208.230,237.802 204.090,238.015 202.000 C 238.714 195.116,239.130 192.691,239.668 192.349 C 239.961 192.164,248.165 192.009,257.900 192.006 L 275.600 192.000 275.600 162.680 C 275.600 140.409,275.485 133.245,275.120 132.880 C 274.424 132.184,256.819 132.203,255.878 132.900 C 255.267 133.353,255.193 134.949,255.101 149.800 L 255.000 166.200 233.600 166.200 L 212.200 166.200 212.000 149.400 L 211.800 132.600 202.000 132.600 L 192.200 132.600 192.000 149.400 L 191.800 166.200 170.645 166.304 C 155.355 166.378,149.339 166.282,148.945 165.955 C 148.501 165.586,148.400 162.512,148.400 149.431 C 148.400 137.465,148.277 133.237,147.920 132.880 C 147.114 132.074,129.445 132.212,128.626 133.031 M81.106 315.775 C 81.234 329.671,80.907 328.800,86.000 328.800 C 91.093 328.800,90.766 329.671,90.894 315.775 L 91.000 304.200 94.400 304.200 L 97.800 304.200 97.906 317.185 L 98.011 330.170 95.116 333.085 L 92.220 336.000 86.000 336.000 L 79.780 336.000 76.890 333.091 L 74.000 330.181 74.000 317.357 C 74.000 310.304,74.127 304.407,74.282 304.252 C 74.436 304.097,76.011 304.022,77.782 304.085 L 81.000 304.200 81.106 315.775 M111.890 304.690 C 112.036 305.070,113.920 308.235,116.077 311.725 C 118.235 315.215,120.010 318.189,120.022 318.335 C 120.076 318.996,123.039 322.943,123.360 322.782 C 123.559 322.682,123.652 320.173,123.569 317.200 C 123.485 314.230,123.413 310.090,123.409 308.000 L 123.400 304.200 127.200 304.200 L 131.000 304.200 131.000 320.000 L 131.000 335.800 126.693 335.914 C 122.866 336.015,122.355 335.948,122.114 335.314 C 121.786 334.454,112.187 318.977,111.189 317.700 C 110.100 316.307,110.029 317.090,110.387 326.655 C 110.767 336.833,111.084 336.064,106.564 335.916 L 103.000 335.800 102.895 320.401 C 102.837 311.932,102.877 304.777,102.983 304.501 C 103.315 303.636,111.552 303.811,111.890 304.690 M143.000 320.000 L 143.000 335.800 139.000 335.800 L 135.000 335.800 134.895 320.401 C 134.837 311.932,134.879 304.770,134.988 304.487 C 135.135 304.103,136.188 304.000,139.093 304.085 L 143.000 304.200 143.000 320.000 M153.212 305.500 C 153.459 306.325,153.812 307.540,153.997 308.200 C 154.182 308.860,155.079 312.010,155.991 315.200 C 156.903 318.390,157.903 321.900,158.213 323.000 C 158.523 324.100,158.930 325.540,159.117 326.200 C 159.474 327.459,160.800 328.123,160.800 327.043 C 160.800 326.705,161.046 325.657,161.348 324.714 C 161.649 323.771,162.203 321.920,162.580 320.600 C 162.956 319.280,163.409 317.750,163.586 317.200 C 163.763 316.650,164.400 314.400,165.003 312.200 C 165.605 310.000,166.397 307.300,166.763 306.200 L 167.429 304.200 171.164 304.084 C 175.420 303.953,175.133 303.533,173.846 308.000 C 173.497 309.210,172.857 311.460,172.424 313.000 C 171.990 314.540,171.349 316.790,170.999 318.000 C 170.649 319.210,169.910 321.820,169.357 323.800 C 168.803 325.780,168.194 327.940,168.003 328.600 C 166.735 332.979,166.445 333.917,166.056 334.900 L 165.620 336.000 160.000 336.000 L 154.380 336.000 153.944 334.900 C 153.497 333.772,153.107 332.462,151.357 326.200 C 150.803 324.220,150.193 322.060,150.000 321.400 C 149.807 320.740,149.197 318.580,148.643 316.600 C 148.090 314.620,147.350 312.010,146.999 310.800 C 144.854 303.401,144.660 304.000,149.205 304.000 L 152.762 304.000 153.212 305.500 M201.126 306.199 C 201.195 307.298,201.142 308.783,201.008 309.499 L 200.764 310.800 193.615 310.800 C 184.907 310.800,185.200 310.710,185.200 313.394 C 185.200 316.264,185.396 316.358,191.626 316.488 L 197.000 316.600 197.000 319.800 L 197.000 323.000 191.200 323.200 L 185.400 323.400 185.279 325.964 C 185.122 329.293,184.853 329.187,193.482 329.194 L 200.764 329.200 201.008 330.501 C 201.142 331.217,201.195 332.702,201.126 333.801 L 201.000 335.800 189.600 335.800 L 178.200 335.800 178.095 320.401 C 178.037 311.932,178.078 304.774,178.185 304.495 C 178.337 304.098,180.845 304.011,189.690 304.094 L 201.000 304.200 201.126 306.199 M227.110 306.909 L 230.000 309.819 230.000 314.558 L 230.000 319.298 227.592 321.872 L 225.185 324.445 227.992 329.930 C 229.537 332.947,230.800 335.553,230.800 335.722 C 230.800 335.891,229.051 335.977,226.914 335.914 L 223.028 335.800 220.414 330.512 L 217.800 325.223 215.512 325.212 L 213.223 325.200 213.112 330.500 L 213.000 335.800 209.600 335.800 L 206.200 335.800 206.095 320.401 C 206.037 311.932,206.077 304.777,206.183 304.501 C 206.329 304.120,208.518 304.000,215.297 304.000 L 224.220 304.000 227.110 306.909 M257.116 307.500 L 257.232 310.800 250.432 310.800 C 242.905 310.800,242.000 311.104,242.000 313.626 C 242.000 315.032,242.616 315.494,245.452 316.217 C 246.744 316.546,248.700 317.072,249.800 317.384 C 250.900 317.697,252.338 318.068,252.996 318.208 C 253.709 318.360,254.959 319.286,256.096 320.502 L 258.000 322.542 258.000 326.381 L 258.000 330.220 255.083 333.118 L 252.165 336.016 243.183 335.908 L 234.200 335.800 234.200 332.600 L 234.200 329.400 241.884 329.200 C 250.340 328.980,250.758 328.844,250.787 326.310 C 250.800 325.195,249.252 324.000,247.795 324.000 C 247.440 324.000,246.216 323.719,245.075 323.376 C 243.934 323.033,242.280 322.562,241.400 322.330 C 236.570 321.054,234.683 318.929,234.460 314.516 C 234.255 310.469,234.409 310.103,237.679 306.859 L 240.577 303.984 248.788 304.092 L 257.000 304.200 257.116 307.500 M269.000 320.000 L 269.000 335.800 265.600 335.800 L 262.200 335.800 262.095 320.401 C 261.971 302.122,261.570 303.939,265.694 304.084 L 269.000 304.200 269.000 320.000 M297.916 307.500 L 298.032 310.800 293.622 310.800 L 289.211 310.800 289.106 323.300 L 289.000 335.800 285.106 335.914 L 281.211 336.029 281.106 323.514 L 281.000 311.000 276.500 310.887 L 272.000 310.774 272.000 307.654 C 272.000 303.629,270.723 303.974,285.172 304.094 L 297.800 304.200 297.916 307.500 M308.221 305.200 C 308.534 305.750,310.078 308.855,311.652 312.100 C 313.227 315.345,314.743 318.000,315.022 318.000 C 315.301 318.000,317.073 314.850,318.961 311.000 L 322.393 304.000 326.330 304.000 C 331.070 304.000,331.011 303.955,329.626 306.534 C 327.210 311.033,324.586 315.963,322.885 319.200 C 321.902 321.070,320.677 323.361,320.161 324.292 C 319.346 325.765,319.210 326.620,319.112 330.892 L 319.000 335.800 315.000 335.800 L 311.000 335.800 310.800 330.800 L 310.600 325.800 308.637 322.000 C 307.557 319.910,306.373 317.660,306.006 317.000 C 305.639 316.340,304.470 314.180,303.409 312.200 C 298.441 302.932,298.404 303.935,303.706 304.087 C 307.442 304.194,307.683 304.253,308.221 305.200 M213.682 311.141 C 213.312 311.376,213.198 312.373,213.282 314.635 L 213.400 317.800 217.545 317.914 C 222.406 318.049,222.767 317.819,222.787 314.575 C 222.807 311.382,222.018 310.799,217.684 310.806 C 215.768 310.809,213.967 310.960,213.682 311.141 M130.892 345.159 C 131.412 345.357,133.044 346.896,134.518 348.581 L 137.200 351.643 137.200 361.668 L 137.200 371.692 134.131 374.846 L 131.061 378.000 124.639 378.000 L 118.218 378.000 115.109 374.909 L 112.000 371.819 112.000 361.379 L 112.000 350.939 115.154 347.869 L 118.308 344.800 124.128 344.800 C 127.329 344.800,130.373 344.962,130.892 345.159 M163.800 348.400 L 163.800 351.800 156.200 352.000 L 148.600 352.200 148.478 354.583 C 148.253 358.958,147.986 358.761,154.305 358.889 L 159.800 359.000 159.800 362.400 L 159.800 365.800 154.200 366.000 L 148.600 366.200 148.400 372.000 L 148.200 377.800 144.600 377.800 L 141.000 377.800 140.895 361.847 C 140.820 350.298,140.917 345.740,141.250 345.340 C 141.624 344.890,143.746 344.807,152.754 344.894 L 163.800 345.000 163.800 348.400 M199.180 348.000 L 201.966 351.000 201.983 361.543 L 202.000 372.085 199.132 375.043 L 196.265 378.000 189.972 378.000 L 183.679 378.000 180.840 374.959 L 178.000 371.919 178.013 361.459 L 178.026 351.000 180.731 348.161 C 184.109 344.615,183.496 344.819,190.497 344.917 L 196.394 345.000 199.180 348.000 M212.684 345.048 C 213.567 345.285,213.567 345.286,213.684 357.426 C 213.821 371.717,213.473 370.767,218.569 370.787 C 223.512 370.807,223.200 371.710,223.200 357.385 L 223.200 345.293 224.100 345.052 C 225.700 344.623,230.219 344.779,230.720 345.280 C 231.074 345.634,231.200 349.175,231.200 358.726 L 231.200 371.692 228.131 374.846 L 225.061 378.000 218.460 378.000 L 211.858 378.000 208.929 375.071 L 206.000 372.142 206.000 358.738 C 206.000 351.365,206.120 345.213,206.267 345.067 C 206.596 344.738,211.473 344.723,212.684 345.048 M242.700 345.052 L 243.600 345.293 243.600 358.047 L 243.600 370.800 249.951 370.800 C 257.476 370.800,257.286 370.692,257.118 374.863 L 257.000 377.800 246.600 377.800 L 236.200 377.800 236.095 361.801 C 236.038 353.001,236.077 345.576,236.183 345.301 C 236.386 344.771,240.996 344.596,242.700 345.052 M266.826 345.214 C 267.565 345.609,267.600 346.172,267.600 357.483 C 267.600 371.574,267.348 370.800,271.930 370.800 C 276.682 370.800,276.400 371.634,276.400 357.552 C 276.400 343.712,276.054 344.686,280.906 344.883 L 283.800 345.000 283.905 358.537 L 284.011 372.074 281.138 375.037 L 278.265 378.000 272.000 378.000 L 265.735 378.000 262.868 375.043 L 260.000 372.085 260.000 358.709 C 260.000 351.353,260.120 345.213,260.267 345.067 C 260.693 344.640,265.976 344.759,266.826 345.214 M120.662 352.731 C 119.817 353.665,119.654 369.494,120.480 370.320 C 121.131 370.971,128.069 370.971,128.720 370.320 C 129.604 369.436,129.377 353.484,128.469 352.662 C 127.367 351.665,121.581 351.717,120.662 352.731 M186.016 352.875 C 185.252 353.695,185.200 354.254,185.200 361.613 C 185.200 371.161,185.008 370.800,190.070 370.800 C 194.967 370.800,194.800 371.128,194.800 361.544 C 194.800 351.888,194.856 352.000,190.000 352.000 C 187.255 352.000,186.722 352.117,186.016 352.875 " stroke="none" fill="#ffffff" fill-rule="evenodd"></path><path id="path1" d="M195.476 17.457 C 195.324 17.609,195.200 30.753,195.200 46.667 L 195.200 75.600 202.003 75.600 L 208.805 75.600 208.703 46.500 L 208.600 17.400 202.176 17.290 C 198.643 17.230,195.628 17.305,195.476 17.457 M126.500 40.226 C 124.245 42.509,122.400 44.610,122.400 44.894 C 122.400 45.178,131.581 54.585,142.801 65.797 L 163.202 86.184 167.601 81.799 C 170.021 79.387,172.000 77.304,172.000 77.170 C 172.000 76.822,132.364 37.202,131.400 36.587 C 130.670 36.120,130.242 36.438,126.500 40.226 M252.975 56.008 C 241.850 67.114,232.590 76.484,232.397 76.830 C 232.126 77.317,233.043 78.453,236.422 81.822 L 240.798 86.184 261.025 65.992 C 272.150 54.886,281.410 45.516,281.603 45.170 C 281.874 44.683,280.957 43.547,277.578 40.178 L 273.202 35.816 252.975 56.008 " stroke="none" fill="#8d1713" fill-rule="evenodd"></path><path id="path2" d="M194.988 17.291 C 194.881 17.571,194.840 30.850,194.897 46.800 L 195.000 75.800 202.000 75.800 L 209.000 75.800 209.000 46.400 L 209.000 17.000 202.091 16.891 C 196.783 16.806,195.137 16.899,194.988 17.291 M208.703 46.500 L 208.805 75.600 202.003 75.600 L 195.200 75.600 195.200 46.667 C 195.200 30.753,195.324 17.609,195.476 17.457 C 195.628 17.305,198.643 17.230,202.176 17.290 L 208.600 17.400 208.703 46.500 M125.700 39.850 C 123.225 42.366,121.200 44.640,121.200 44.903 C 121.200 45.551,162.001 86.346,162.950 86.648 C 163.805 86.919,172.800 78.297,172.800 77.205 C 172.800 76.392,131.564 35.189,130.799 35.238 C 130.469 35.259,128.175 37.334,125.700 39.850 M252.105 55.699 C 240.822 66.974,231.484 76.537,231.352 76.950 C 231.083 77.800,239.700 86.800,240.784 86.800 C 241.511 86.800,282.311 46.111,282.648 45.050 C 282.917 44.200,274.300 35.200,273.216 35.200 C 272.887 35.200,263.387 44.425,252.105 55.699 M152.100 57.012 C 163.045 67.964,172.000 77.036,172.000 77.170 C 172.000 77.304,170.021 79.387,167.601 81.799 L 163.202 86.184 142.801 65.797 C 131.581 54.585,122.400 45.178,122.400 44.894 C 122.400 43.592,130.567 36.054,131.400 36.587 C 131.840 36.868,141.155 46.059,152.100 57.012 M281.603 45.170 C 281.410 45.516,272.150 54.886,261.025 65.992 L 240.798 86.184 236.422 81.822 C 233.043 78.453,232.126 77.317,232.397 76.830 C 232.590 76.484,241.850 67.114,252.975 56.008 L 273.202 35.816 277.578 40.178 C 280.957 43.547,281.874 44.683,281.603 45.170 M114.184 118.500 C 114.080 118.775,114.040 138.710,114.097 162.800 L 114.200 206.600 133.048 206.704 L 151.897 206.808 152.159 208.304 C 152.434 209.872,153.359 217.672,153.996 223.800 C 154.202 225.780,154.654 229.830,155.000 232.800 C 155.346 235.770,155.796 239.820,156.000 241.800 C 156.204 243.780,156.653 247.830,156.999 250.800 C 157.345 253.770,157.794 257.910,157.996 260.000 C 158.457 264.760,158.806 266.519,159.363 266.894 C 159.603 267.056,178.790 267.188,202.000 267.188 C 225.210 267.188,244.397 267.056,244.638 266.894 C 245.248 266.485,245.584 264.908,246.011 260.444 C 246.214 258.330,246.661 254.080,247.004 251.000 C 247.348 247.920,247.796 243.780,248.000 241.800 C 248.203 239.820,248.654 235.770,249.000 232.800 C 249.346 229.830,249.795 225.780,249.996 223.800 C 250.799 215.916,251.601 208.944,251.825 207.904 L 252.062 206.808 270.931 206.704 L 289.800 206.600 289.800 162.400 L 289.800 118.200 265.400 118.200 L 241.000 118.200 240.896 135.109 L 240.791 152.018 233.696 151.909 L 226.600 151.800 226.400 135.000 L 226.200 118.200 202.000 118.200 L 177.800 118.200 177.600 135.000 L 177.400 151.800 170.200 151.800 L 163.000 151.800 162.896 134.900 L 162.791 118.000 138.583 118.000 C 119.585 118.000,114.334 118.108,114.184 118.500 M147.920 132.880 C 148.277 133.237,148.400 137.465,148.400 149.431 C 148.400 162.512,148.501 165.586,148.945 165.955 C 149.339 166.282,155.355 166.378,170.645 166.304 L 191.800 166.200 192.000 149.400 L 192.200 132.600 202.000 132.600 L 211.800 132.600 212.000 149.400 L 212.200 166.200 233.600 166.200 L 255.000 166.200 255.101 149.800 C 255.193 134.949,255.267 133.353,255.878 132.900 C 256.819 132.203,274.424 132.184,275.120 132.880 C 275.485 133.245,275.600 140.409,275.600 162.680 L 275.600 192.000 257.900 192.006 C 248.165 192.009,239.961 192.164,239.668 192.349 C 239.130 192.691,238.714 195.116,238.015 202.000 C 237.802 204.090,237.347 208.230,237.002 211.200 C 236.657 214.170,236.206 218.130,236.000 220.000 C 235.794 221.870,235.342 225.830,234.997 228.800 C 234.652 231.770,234.204 235.820,234.000 237.800 C 233.049 247.060,232.391 251.729,231.966 252.242 C 231.211 253.151,172.720 253.067,171.963 252.156 C 171.473 251.566,171.186 249.524,170.024 238.400 C 169.806 236.310,169.346 232.080,169.001 229.000 C 168.657 225.920,168.212 221.870,168.014 220.000 C 167.815 218.130,167.366 214.080,167.015 211.000 C 166.665 207.920,166.204 203.780,165.991 201.800 C 165.203 194.461,164.949 192.789,164.563 192.403 C 164.318 192.158,157.343 191.969,146.184 191.904 L 128.200 191.800 128.097 162.731 C 128.006 136.699,128.061 133.596,128.626 133.031 C 129.445 132.212,147.114 132.074,147.920 132.880 M74.282 304.252 C 74.127 304.407,74.000 310.304,74.000 317.357 L 74.000 330.181 76.890 333.091 L 79.780 336.000 86.000 336.000 L 92.220 336.000 95.116 333.085 L 98.011 330.170 97.906 317.185 L 97.800 304.200 94.400 304.200 L 91.000 304.200 90.894 315.775 C 90.766 329.671,91.093 328.800,86.000 328.800 C 80.907 328.800,81.234 329.671,81.106 315.775 L 81.000 304.200 77.782 304.085 C 76.011 304.022,74.436 304.097,74.282 304.252 M102.983 304.501 C 102.877 304.777,102.837 311.932,102.895 320.401 L 103.000 335.800 106.564 335.916 C 111.084 336.064,110.767 336.833,110.387 326.655 C 110.029 317.090,110.100 316.307,111.189 317.700 C 112.187 318.977,121.786 334.454,122.114 335.314 C 122.355 335.948,122.866 336.015,126.693 335.914 L 131.000 335.800 131.000 320.000 L 131.000 304.200 127.200 304.200 L 123.400 304.200 123.409 308.000 C 123.413 310.090,123.485 314.230,123.569 317.200 C 123.652 320.173,123.559 322.682,123.360 322.782 C 123.039 322.943,120.076 318.996,120.022 318.335 C 120.010 318.189,118.235 315.215,116.077 311.725 C 113.920 308.235,112.036 305.070,111.890 304.690 C 111.552 303.811,103.315 303.636,102.983 304.501 M134.988 304.487 C 134.879 304.770,134.837 311.932,134.895 320.401 L 135.000 335.800 139.000 335.800 L 143.000 335.800 143.000 320.000 L 143.000 304.200 139.093 304.085 C 136.188 304.000,135.135 304.103,134.988 304.487 M145.458 304.306 C 145.276 304.600,145.613 306.020,146.999 310.800 C 147.350 312.010,148.090 314.620,148.643 316.600 C 149.197 318.580,149.807 320.740,150.000 321.400 C 150.193 322.060,150.803 324.220,151.357 326.200 C 153.107 332.462,153.497 333.772,153.944 334.900 L 154.380 336.000 160.000 336.000 L 165.620 336.000 166.056 334.900 C 166.445 333.917,166.735 332.979,168.003 328.600 C 168.194 327.940,168.803 325.780,169.357 323.800 C 169.910 321.820,170.649 319.210,170.999 318.000 C 171.349 316.790,171.990 314.540,172.424 313.000 C 172.857 311.460,173.497 309.210,173.846 308.000 C 175.133 303.533,175.420 303.953,171.164 304.084 L 167.429 304.200 166.763 306.200 C 166.397 307.300,165.605 310.000,165.003 312.200 C 164.400 314.400,163.763 316.650,163.586 317.200 C 163.409 317.750,162.956 319.280,162.580 320.600 C 162.203 321.920,161.649 323.771,161.348 324.714 C 161.046 325.657,160.800 326.705,160.800 327.043 C 160.800 328.123,159.474 327.459,159.117 326.200 C 158.930 325.540,158.523 324.100,158.213 323.000 C 157.903 321.900,156.903 318.390,155.991 315.200 C 155.079 312.010,154.182 308.860,153.997 308.200 C 153.812 307.540,153.459 306.325,153.212 305.500 L 152.762 304.000 149.205 304.000 C 147.248 304.000,145.562 304.138,145.458 304.306 M178.185 304.495 C 178.078 304.774,178.037 311.932,178.095 320.401 L 178.200 335.800 189.600 335.800 L 201.000 335.800 201.126 333.801 C 201.195 332.702,201.142 331.217,201.008 330.501 L 200.764 329.200 193.482 329.194 C 184.853 329.187,185.122 329.293,185.279 325.964 L 185.400 323.400 191.200 323.200 L 197.000 323.000 197.000 319.800 L 197.000 316.600 191.626 316.488 C 185.396 316.358,185.200 316.264,185.200 313.394 C 185.200 310.710,184.907 310.800,193.615 310.800 L 200.764 310.800 201.008 309.499 C 201.142 308.783,201.195 307.298,201.126 306.199 L 201.000 304.200 189.690 304.094 C 180.845 304.011,178.337 304.098,178.185 304.495 M206.183 304.501 C 206.077 304.777,206.037 311.932,206.095 320.401 L 206.200 335.800 209.600 335.800 L 213.000 335.800 213.112 330.500 L 213.223 325.200 215.512 325.212 L 217.800 325.223 220.414 330.512 L 223.028 335.800 226.914 335.914 C 229.051 335.977,230.800 335.891,230.800 335.722 C 230.800 335.553,229.537 332.947,227.992 329.930 L 225.185 324.445 227.592 321.872 L 230.000 319.298 230.000 314.558 L 230.000 309.819 227.110 306.909 L 224.220 304.000 215.297 304.000 C 208.518 304.000,206.329 304.120,206.183 304.501 M237.679 306.859 C 234.409 310.103,234.255 310.469,234.460 314.516 C 234.683 318.929,236.570 321.054,241.400 322.330 C 242.280 322.562,243.934 323.033,245.075 323.376 C 246.216 323.719,247.440 324.000,247.795 324.000 C 249.252 324.000,250.800 325.195,250.787 326.310 C 250.758 328.844,250.340 328.980,241.884 329.200 L 234.200 329.400 234.200 332.600 L 234.200 335.800 243.183 335.908 L 252.165 336.016 255.083 333.118 L 258.000 330.220 258.000 326.381 L 258.000 322.542 256.096 320.502 C 254.959 319.286,253.709 318.360,252.996 318.208 C 252.338 318.068,250.900 317.697,249.800 317.384 C 248.700 317.072,246.744 316.546,245.452 316.217 C 242.616 315.494,242.000 315.032,242.000 313.626 C 242.000 311.104,242.905 310.800,250.432 310.800 L 257.232 310.800 257.116 307.500 L 257.000 304.200 248.788 304.092 L 240.577 303.984 237.679 306.859 M262.189 304.485 C 262.080 304.769,262.037 311.932,262.095 320.401 L 262.200 335.800 265.600 335.800 L 269.000 335.800 269.000 320.000 L 269.000 304.200 265.694 304.084 C 263.272 303.999,262.334 304.106,262.189 304.485 M272.272 304.261 C 272.122 304.411,272.000 305.937,272.000 307.654 L 272.000 310.774 276.500 310.887 L 281.000 311.000 281.106 323.514 L 281.211 336.029 285.106 335.914 L 289.000 335.800 289.106 323.300 L 289.211 310.800 293.622 310.800 L 298.032 310.800 297.916 307.500 L 297.800 304.200 285.172 304.094 C 278.227 304.036,272.422 304.111,272.272 304.261 M299.512 304.221 C 299.376 304.357,299.763 305.398,300.372 306.534 C 300.981 307.670,302.347 310.220,303.409 312.200 C 304.470 314.180,305.639 316.340,306.006 317.000 C 306.373 317.660,307.557 319.910,308.637 322.000 L 310.600 325.800 310.800 330.800 L 311.000 335.800 315.000 335.800 L 319.000 335.800 319.112 330.892 C 319.210 326.620,319.346 325.765,320.161 324.292 C 320.677 323.361,321.902 321.070,322.885 319.200 C 324.586 315.963,327.210 311.033,329.626 306.534 C 331.011 303.955,331.070 304.000,326.330 304.000 L 322.393 304.000 318.961 311.000 C 317.073 314.850,315.301 318.000,315.022 318.000 C 314.743 318.000,313.227 315.345,311.652 312.100 C 307.367 303.269,308.309 304.219,303.706 304.087 C 301.535 304.025,299.648 304.085,299.512 304.221 M221.984 311.675 C 222.587 312.323,222.797 313.079,222.787 314.575 C 222.767 317.819,222.406 318.049,217.545 317.914 L 213.400 317.800 213.282 314.635 C 213.139 310.794,213.116 310.814,217.684 310.806 C 220.758 310.801,221.265 310.903,221.984 311.675 M115.154 347.869 L 112.000 350.939 112.000 361.379 L 112.000 371.819 115.109 374.909 L 118.218 378.000 124.639 378.000 L 131.061 378.000 134.131 374.846 L 137.200 371.692 137.200 361.668 L 137.200 351.643 134.518 348.581 C 131.200 344.790,131.226 344.800,124.128 344.800 L 118.308 344.800 115.154 347.869 M141.250 345.340 C 140.917 345.740,140.820 350.298,140.895 361.847 L 141.000 377.800 144.600 377.800 L 148.200 377.800 148.400 372.000 L 148.600 366.200 154.200 366.000 L 159.800 365.800 159.800 362.400 L 159.800 359.000 154.305 358.889 C 147.986 358.761,148.253 358.958,148.478 354.583 L 148.600 352.200 156.200 352.000 L 163.800 351.800 163.800 348.400 L 163.800 345.000 152.754 344.894 C 143.746 344.807,141.624 344.890,141.250 345.340 M184.018 345.078 C 183.698 345.212,182.219 346.599,180.731 348.161 L 178.026 351.000 178.013 361.459 L 178.000 371.919 180.840 374.959 L 183.679 378.000 189.972 378.000 L 196.265 378.000 199.132 375.043 L 202.000 372.085 201.983 361.543 L 201.966 351.000 199.180 348.000 L 196.394 345.000 190.497 344.917 C 187.254 344.872,184.338 344.944,184.018 345.078 M206.267 345.067 C 206.120 345.213,206.000 351.365,206.000 358.738 L 206.000 372.142 208.929 375.071 L 211.858 378.000 218.460 378.000 L 225.061 378.000 228.131 374.846 L 231.200 371.692 231.200 358.726 C 231.200 349.175,231.074 345.634,230.720 345.280 C 230.219 344.779,225.700 344.623,224.100 345.052 L 223.200 345.293 223.200 357.385 C 223.200 371.710,223.512 370.807,218.569 370.787 C 213.473 370.767,213.821 371.717,213.684 357.426 C 213.567 345.286,213.567 345.285,212.684 345.048 C 211.473 344.723,206.596 344.738,206.267 345.067 M236.183 345.301 C 236.077 345.576,236.038 353.001,236.095 361.801 L 236.200 377.800 246.600 377.800 L 257.000 377.800 257.118 374.863 C 257.286 370.692,257.476 370.800,249.951 370.800 L 243.600 370.800 243.600 358.047 L 243.600 345.293 242.700 345.052 C 240.996 344.596,236.386 344.771,236.183 345.301 M260.267 345.067 C 260.120 345.213,260.000 351.353,260.000 358.709 L 260.000 372.085 262.868 375.043 L 265.735 378.000 272.000 378.000 L 278.265 378.000 281.138 375.037 L 284.011 372.074 283.905 358.537 L 283.800 345.000 280.906 344.883 C 276.054 344.686,276.400 343.712,276.400 357.552 C 276.400 371.634,276.682 370.800,271.930 370.800 C 267.348 370.800,267.600 371.574,267.600 357.483 C 267.600 346.172,267.565 345.609,266.826 345.214 C 265.976 344.759,260.693 344.640,260.267 345.067 M128.469 352.662 C 129.377 353.484,129.604 369.436,128.720 370.320 C 128.069 370.971,121.131 370.971,120.480 370.320 C 119.654 369.494,119.817 353.665,120.662 352.731 C 121.581 351.717,127.367 351.665,128.469 352.662 M193.984 352.875 C 194.747 353.694,194.800 354.254,194.800 361.544 C 194.800 371.128,194.967 370.800,190.070 370.800 C 185.008 370.800,185.200 371.161,185.200 361.613 C 185.200 351.878,185.139 352.000,190.000 352.000 C 192.745 352.000,193.278 352.117,193.984 352.875 " stroke="none" fill="#e23430" fill-rule="evenodd"></path></g></svg>